<?xml version="1.0" encoding="utf-8" standalone="no"?>
<!DOCTYPE svg PUBLIC "-//W3C//DTD SVG 1.1//EN"
  "http://www.w3.org/Graphics/SVG/1.1/DTD/svg11.dtd">
<!-- Created with matplotlib (https://matplotlib.org/) -->
<svg height="180.74225pt" version="1.1" viewBox="0 0 471.344983 180.74225" width="471.344983pt" xmlns="http://www.w3.org/2000/svg" xmlns:xlink="http://www.w3.org/1999/xlink">
 <defs>
  <style type="text/css">
*{stroke-linecap:butt;stroke-linejoin:round;}
  </style>
 </defs>
 <g id="figure_1">
  <g id="patch_1">
   <path d="M 0 180.74225 
L 471.344983 180.74225 
L 471.344983 0 
L 0 0 
z
" style="fill:none;"/>
  </g>
  <g id="axes_1">
   <g id="patch_2">
    <path d="M 60.028775 149.9145 
L 208.267266 149.9145 
L 208.267266 14.0145 
L 60.028775 14.0145 
z
" style="fill:none;"/>
   </g>
   <g id="matplotlib.axis_1">
    <g id="xtick_1">
     <g id="line2d_1">
      <defs>
       <path d="M 0 0 
L 0 4.8 
" id="mbdd6703f62" style="stroke:#000000;"/>
      </defs>
      <g>
       <use style="stroke:#000000;" x="90.548464" xlink:href="#mbdd6703f62" y="149.9145"/>
      </g>
     </g>
     <g id="text_1">
      <text style="font-family:DejaVu Sans;font-size:8.8px;font-style:normal;font-weight:normal;text-anchor:middle;" transform="rotate(-0, 90.548464, 164.901125)" x="90.548464" y="164.901125">−1.5</text>
     </g>
    </g>
    <g id="xtick_2">
     <g id="line2d_2">
      <g>
       <use style="stroke:#000000;" x="130.184424" xlink:href="#mbdd6703f62" y="149.9145"/>
      </g>
     </g>
     <g id="text_2">
      <text style="font-family:DejaVu Sans;font-size:8.8px;font-style:normal;font-weight:normal;text-anchor:middle;" transform="rotate(-0, 130.184424, 164.901125)" x="130.184424" y="164.901125">−1.0</text>
     </g>
    </g>
    <g id="xtick_3">
     <g id="line2d_3">
      <g>
       <use style="stroke:#000000;" x="169.820384" xlink:href="#mbdd6703f62" y="149.9145"/>
      </g>
     </g>
     <g id="text_3">
      <text style="font-family:DejaVu Sans;font-size:8.8px;font-style:normal;font-weight:normal;text-anchor:middle;" transform="rotate(-0, 169.820384, 164.901125)" x="169.820384" y="164.901125">−0.5</text>
     </g>
    </g>
    <g id="text_4">
     <text style="font-family:DejaVu Sans;font-size:9.6px;font-style:normal;font-weight:normal;text-anchor:middle;" transform="rotate(-0, 134.14802, 178.02575)" x="134.14802" y="178.02575">Time Point Relative to Choice (Seconds)</text>
    </g>
   </g>
   <g id="matplotlib.axis_2">
    <g id="ytick_1">
     <g id="line2d_4">
      <defs>
       <path d="M 0 0 
L -4.8 0 
" id="m2cfbd57278" style="stroke:#000000;"/>
      </defs>
      <g>
       <use style="stroke:#000000;" x="60.028775" xlink:href="#m2cfbd57278" y="149.825276"/>
      </g>
     </g>
     <g id="text_5">
      <text style="font-family:DejaVu Sans;font-size:8.8px;font-style:normal;font-weight:normal;text-anchor:end;" transform="rotate(-0, 51.728775, 153.168588)" x="51.728775" y="153.168588">−0.05</text>
     </g>
    </g>
    <g id="ytick_2">
     <g id="line2d_5">
      <g>
       <use style="stroke:#000000;" x="60.028775" xlink:href="#m2cfbd57278" y="129.019392"/>
      </g>
     </g>
     <g id="text_6">
      <text style="font-family:DejaVu Sans;font-size:8.8px;font-style:normal;font-weight:normal;text-anchor:end;" transform="rotate(-0, 51.728775, 132.362705)" x="51.728775" y="132.362705">0.00</text>
     </g>
    </g>
    <g id="ytick_3">
     <g id="line2d_6">
      <g>
       <use style="stroke:#000000;" x="60.028775" xlink:href="#m2cfbd57278" y="108.213509"/>
      </g>
     </g>
     <g id="text_7">
      <text style="font-family:DejaVu Sans;font-size:8.8px;font-style:normal;font-weight:normal;text-anchor:end;" transform="rotate(-0, 51.728775, 111.556821)" x="51.728775" y="111.556821">0.05</text>
     </g>
    </g>
    <g id="ytick_4">
     <g id="line2d_7">
      <g>
       <use style="stroke:#000000;" x="60.028775" xlink:href="#m2cfbd57278" y="87.407625"/>
      </g>
     </g>
     <g id="text_8">
      <text style="font-family:DejaVu Sans;font-size:8.8px;font-style:normal;font-weight:normal;text-anchor:end;" transform="rotate(-0, 51.728775, 90.750937)" x="51.728775" y="90.750937">0.10</text>
     </g>
    </g>
    <g id="ytick_5">
     <g id="line2d_8">
      <g>
       <use style="stroke:#000000;" x="60.028775" xlink:href="#m2cfbd57278" y="66.601741"/>
      </g>
     </g>
     <g id="text_9">
      <text style="font-family:DejaVu Sans;font-size:8.8px;font-style:normal;font-weight:normal;text-anchor:end;" transform="rotate(-0, 51.728775, 69.945054)" x="51.728775" y="69.945054">0.15</text>
     </g>
    </g>
    <g id="ytick_6">
     <g id="line2d_9">
      <g>
       <use style="stroke:#000000;" x="60.028775" xlink:href="#m2cfbd57278" y="45.795858"/>
      </g>
     </g>
     <g id="text_10">
      <text style="font-family:DejaVu Sans;font-size:8.8px;font-style:normal;font-weight:normal;text-anchor:end;" transform="rotate(-0, 51.728775, 49.13917)" x="51.728775" y="49.13917">0.20</text>
     </g>
    </g>
    <g id="ytick_7">
     <g id="line2d_10">
      <g>
       <use style="stroke:#000000;" x="60.028775" xlink:href="#m2cfbd57278" y="24.989974"/>
      </g>
     </g>
     <g id="text_11">
      <text style="font-family:DejaVu Sans;font-size:8.8px;font-style:normal;font-weight:normal;text-anchor:end;" transform="rotate(-0, 51.728775, 28.333287)" x="51.728775" y="28.333287">0.25</text>
     </g>
    </g>
    <g id="text_12">
     <text style="font-family:DejaVu Sans;font-size:9.6px;font-style:normal;font-weight:normal;" transform="translate(8.0145 148.2045)rotate(-90)">Human Test Data Accuracy </text>
     <text style="font-family:DejaVu Sans;font-size:9.6px;font-style:normal;font-weight:normal;" transform="translate(18.7644 159.753)rotate(-90)"> (Pearson Correlation Coefficient</text>
    </g>
   </g>
   <g id="LineCollection_1">
    <path clip-path="url(#pf63ab7e95e)" d="M 66.766888 121.727183 
L 66.766888 119.767898 
" style="fill:none;stroke:#ff0000;stroke-width:1.2;"/>
    <path clip-path="url(#pf63ab7e95e)" d="M 74.69408 125.343245 
L 74.69408 123.181142 
" style="fill:none;stroke:#ff0000;stroke-width:1.2;"/>
    <path clip-path="url(#pf63ab7e95e)" d="M 82.621272 130.737039 
L 82.621272 128.095216 
" style="fill:none;stroke:#ff0000;stroke-width:1.2;"/>
    <path clip-path="url(#pf63ab7e95e)" d="M 90.548464 129.508866 
L 90.548464 127.359739 
" style="fill:none;stroke:#ff0000;stroke-width:1.2;"/>
    <path clip-path="url(#pf63ab7e95e)" d="M 98.475656 136.296417 
L 98.475656 134.122741 
" style="fill:none;stroke:#ff0000;stroke-width:1.2;"/>
    <path clip-path="url(#pf63ab7e95e)" d="M 106.402848 131.660662 
L 106.402848 129.55378 
" style="fill:none;stroke:#ff0000;stroke-width:1.2;"/>
    <path clip-path="url(#pf63ab7e95e)" d="M 114.33004 135.248431 
L 114.33004 133.070678 
" style="fill:none;stroke:#ff0000;stroke-width:1.2;"/>
    <path clip-path="url(#pf63ab7e95e)" d="M 122.257232 143.737227 
L 122.257232 141.216409 
" style="fill:none;stroke:#ff0000;stroke-width:1.2;"/>
    <path clip-path="url(#pf63ab7e95e)" d="M 130.184424 127.11105 
L 130.184424 125.200318 
" style="fill:none;stroke:#ff0000;stroke-width:1.2;"/>
    <path clip-path="url(#pf63ab7e95e)" d="M 138.111616 104.447092 
L 138.111616 102.360628 
" style="fill:none;stroke:#ff0000;stroke-width:1.2;"/>
    <path clip-path="url(#pf63ab7e95e)" d="M 146.038808 90.101211 
L 146.038808 87.848882 
" style="fill:none;stroke:#ff0000;stroke-width:1.2;"/>
    <path clip-path="url(#pf63ab7e95e)" d="M 153.966 77.260643 
L 153.966 74.693094 
" style="fill:none;stroke:#ff0000;stroke-width:1.2;"/>
    <path clip-path="url(#pf63ab7e95e)" d="M 161.893192 75.19076 
L 161.893192 72.739198 
" style="fill:none;stroke:#ff0000;stroke-width:1.2;"/>
    <path clip-path="url(#pf63ab7e95e)" d="M 169.820384 63.110554 
L 169.820384 60.196341 
" style="fill:none;stroke:#ff0000;stroke-width:1.2;"/>
    <path clip-path="url(#pf63ab7e95e)" d="M 177.747576 51.120344 
L 177.747576 47.725999 
" style="fill:none;stroke:#ff0000;stroke-width:1.2;"/>
    <path clip-path="url(#pf63ab7e95e)" d="M 185.674768 45.651486 
L 185.674768 42.106313 
" style="fill:none;stroke:#ff0000;stroke-width:1.2;"/>
    <path clip-path="url(#pf63ab7e95e)" d="M 193.60196 50.715064 
L 193.60196 47.34644 
" style="fill:none;stroke:#ff0000;stroke-width:1.2;"/>
    <path clip-path="url(#pf63ab7e95e)" d="M 201.529152 39.642201 
L 201.529152 36.002306 
" style="fill:none;stroke:#ff0000;stroke-width:1.2;"/>
   </g>
   <g id="LineCollection_2">
    <path clip-path="url(#pf63ab7e95e)" d="M 66.766888 117.839609 
L 66.766888 114.684039 
" style="fill:none;stroke:#0000ff;stroke-width:1.2;"/>
    <path clip-path="url(#pf63ab7e95e)" d="M 74.69408 118.019008 
L 74.69408 114.781574 
" style="fill:none;stroke:#0000ff;stroke-width:1.2;"/>
    <path clip-path="url(#pf63ab7e95e)" d="M 82.621272 121.144242 
L 82.621272 118.080684 
" style="fill:none;stroke:#0000ff;stroke-width:1.2;"/>
    <path clip-path="url(#pf63ab7e95e)" d="M 90.548464 120.047032 
L 90.548464 117.204136 
" style="fill:none;stroke:#0000ff;stroke-width:1.2;"/>
    <path clip-path="url(#pf63ab7e95e)" d="M 98.475656 128.7637 
L 98.475656 125.878594 
" style="fill:none;stroke:#0000ff;stroke-width:1.2;"/>
    <path clip-path="url(#pf63ab7e95e)" d="M 106.402848 125.106522 
L 106.402848 122.373094 
" style="fill:none;stroke:#0000ff;stroke-width:1.2;"/>
    <path clip-path="url(#pf63ab7e95e)" d="M 114.33004 127.869134 
L 114.33004 125.310082 
" style="fill:none;stroke:#0000ff;stroke-width:1.2;"/>
    <path clip-path="url(#pf63ab7e95e)" d="M 122.257232 134.662989 
L 122.257232 132.06341 
" style="fill:none;stroke:#0000ff;stroke-width:1.2;"/>
    <path clip-path="url(#pf63ab7e95e)" d="M 130.184424 123.880245 
L 130.184424 121.526922 
" style="fill:none;stroke:#0000ff;stroke-width:1.2;"/>
    <path clip-path="url(#pf63ab7e95e)" d="M 138.111616 106.910531 
L 138.111616 104.760119 
" style="fill:none;stroke:#0000ff;stroke-width:1.2;"/>
    <path clip-path="url(#pf63ab7e95e)" d="M 146.038808 95.50509 
L 146.038808 93.326734 
" style="fill:none;stroke:#0000ff;stroke-width:1.2;"/>
    <path clip-path="url(#pf63ab7e95e)" d="M 153.966 83.839029 
L 153.966 81.598872 
" style="fill:none;stroke:#0000ff;stroke-width:1.2;"/>
    <path clip-path="url(#pf63ab7e95e)" d="M 161.893192 79.360565 
L 161.893192 77.213511 
" style="fill:none;stroke:#0000ff;stroke-width:1.2;"/>
    <path clip-path="url(#pf63ab7e95e)" d="M 169.820384 67.804035 
L 169.820384 65.603951 
" style="fill:none;stroke:#0000ff;stroke-width:1.2;"/>
    <path clip-path="url(#pf63ab7e95e)" d="M 177.747576 55.082711 
L 177.747576 52.76782 
" style="fill:none;stroke:#0000ff;stroke-width:1.2;"/>
    <path clip-path="url(#pf63ab7e95e)" d="M 185.674768 45.350005 
L 185.674768 42.875658 
" style="fill:none;stroke:#0000ff;stroke-width:1.2;"/>
    <path clip-path="url(#pf63ab7e95e)" d="M 193.60196 44.732815 
L 193.60196 42.186021 
" style="fill:none;stroke:#0000ff;stroke-width:1.2;"/>
    <path clip-path="url(#pf63ab7e95e)" d="M 201.529152 33.947074 
L 201.529152 31.367739 
" style="fill:none;stroke:#0000ff;stroke-width:1.2;"/>
   </g>
   <g id="LineCollection_3">
    <path clip-path="url(#pf63ab7e95e)" d="M 66.766888 102.789552 
L 66.766888 99.697829 
" style="fill:none;stroke:#800080;stroke-width:1.2;"/>
    <path clip-path="url(#pf63ab7e95e)" d="M 74.69408 109.604641 
L 74.69408 106.626391 
" style="fill:none;stroke:#800080;stroke-width:1.2;"/>
    <path clip-path="url(#pf63ab7e95e)" d="M 82.621272 110.58135 
L 82.621272 107.627923 
" style="fill:none;stroke:#800080;stroke-width:1.2;"/>
    <path clip-path="url(#pf63ab7e95e)" d="M 90.548464 111.621565 
L 90.548464 108.812922 
" style="fill:none;stroke:#800080;stroke-width:1.2;"/>
    <path clip-path="url(#pf63ab7e95e)" d="M 98.475656 115.793936 
L 98.475656 113.058668 
" style="fill:none;stroke:#800080;stroke-width:1.2;"/>
    <path clip-path="url(#pf63ab7e95e)" d="M 106.402848 114.29111 
L 106.402848 111.762174 
" style="fill:none;stroke:#800080;stroke-width:1.2;"/>
    <path clip-path="url(#pf63ab7e95e)" d="M 114.33004 110.884935 
L 114.33004 108.52153 
" style="fill:none;stroke:#800080;stroke-width:1.2;"/>
    <path clip-path="url(#pf63ab7e95e)" d="M 122.257232 113.866723 
L 122.257232 111.572882 
" style="fill:none;stroke:#800080;stroke-width:1.2;"/>
    <path clip-path="url(#pf63ab7e95e)" d="M 130.184424 108.044453 
L 130.184424 105.897083 
" style="fill:none;stroke:#800080;stroke-width:1.2;"/>
    <path clip-path="url(#pf63ab7e95e)" d="M 138.111616 95.583858 
L 138.111616 93.619597 
" style="fill:none;stroke:#800080;stroke-width:1.2;"/>
    <path clip-path="url(#pf63ab7e95e)" d="M 146.038808 83.748831 
L 146.038808 81.818604 
" style="fill:none;stroke:#800080;stroke-width:1.2;"/>
    <path clip-path="url(#pf63ab7e95e)" d="M 153.966 74.317068 
L 153.966 72.511384 
" style="fill:none;stroke:#800080;stroke-width:1.2;"/>
    <path clip-path="url(#pf63ab7e95e)" d="M 161.893192 67.968798 
L 161.893192 66.174327 
" style="fill:none;stroke:#800080;stroke-width:1.2;"/>
    <path clip-path="url(#pf63ab7e95e)" d="M 169.820384 62.073601 
L 169.820384 60.35033 
" style="fill:none;stroke:#800080;stroke-width:1.2;"/>
    <path clip-path="url(#pf63ab7e95e)" d="M 177.747576 48.322474 
L 177.747576 46.546378 
" style="fill:none;stroke:#800080;stroke-width:1.2;"/>
    <path clip-path="url(#pf63ab7e95e)" d="M 185.674768 41.943932 
L 185.674768 40.177358 
" style="fill:none;stroke:#800080;stroke-width:1.2;"/>
    <path clip-path="url(#pf63ab7e95e)" d="M 193.60196 36.231338 
L 193.60196 34.468412 
" style="fill:none;stroke:#800080;stroke-width:1.2;"/>
    <path clip-path="url(#pf63ab7e95e)" d="M 201.529152 22.054632 
L 201.529152 20.191773 
" style="fill:none;stroke:#800080;stroke-width:1.2;"/>
   </g>
   <g id="line2d_11">
    <path clip-path="url(#pf63ab7e95e)" d="M 66.766888 120.747541 
L 74.69408 124.262194 
L 82.621272 129.416128 
L 90.548464 128.434303 
L 98.475656 135.209579 
L 106.402848 130.607221 
L 114.33004 134.159554 
L 122.257232 142.476818 
L 130.184424 126.155684 
L 138.111616 103.40386 
L 146.038808 88.975047 
L 153.966 75.976868 
L 161.893192 73.964979 
L 169.820384 61.653447 
L 177.747576 49.423172 
L 185.674768 43.8789 
L 193.60196 49.030752 
L 201.529152 37.822253 
" style="fill:none;stroke:#ff0000;stroke-linecap:square;stroke-width:1.2;"/>
   </g>
   <g id="line2d_12">
    <path clip-path="url(#pf63ab7e95e)" d="M 66.766888 116.261824 
L 74.69408 116.400291 
L 82.621272 119.612463 
L 90.548464 118.625584 
L 98.475656 127.321147 
L 106.402848 123.739808 
L 114.33004 126.589608 
L 122.257232 133.363199 
L 130.184424 122.703584 
L 138.111616 105.835325 
L 146.038808 94.415912 
L 153.966 82.718951 
L 161.893192 78.287038 
L 169.820384 66.703993 
L 177.747576 53.925265 
L 185.674768 44.112832 
L 193.60196 43.459418 
L 201.529152 32.657407 
" style="fill:none;stroke:#0000ff;stroke-linecap:square;stroke-width:1.2;"/>
   </g>
   <g id="line2d_13">
    <path clip-path="url(#pf63ab7e95e)" d="M 66.766888 101.243691 
L 74.69408 108.115516 
L 82.621272 109.104637 
L 90.548464 110.217243 
L 98.475656 114.426302 
L 106.402848 113.026642 
L 114.33004 109.703232 
L 122.257232 112.719803 
L 130.184424 106.970768 
L 138.111616 94.601728 
L 146.038808 82.783717 
L 153.966 73.414226 
L 161.893192 67.071562 
L 169.820384 61.211965 
L 177.747576 47.434426 
L 185.674768 41.060645 
L 193.60196 35.349875 
L 201.529152 21.123203 
" style="fill:none;stroke:#800080;stroke-linecap:square;stroke-width:1.2;"/>
   </g>
   <g id="patch_3">
    <path d="M 60.028775 149.9145 
L 60.028775 14.0145 
" style="fill:none;stroke:#000000;stroke-linecap:square;stroke-linejoin:miter;"/>
   </g>
   <g id="patch_4">
    <path d="M 208.267266 149.9145 
L 208.267266 14.0145 
" style="fill:none;stroke:#000000;stroke-linecap:square;stroke-linejoin:miter;"/>
   </g>
   <g id="patch_5">
    <path d="M 60.028775 149.9145 
L 208.267266 149.9145 
" style="fill:none;stroke:#000000;stroke-linecap:square;stroke-linejoin:miter;"/>
   </g>
   <g id="patch_6">
    <path d="M 60.028775 14.0145 
L 208.267266 14.0145 
" style="fill:none;stroke:#000000;stroke-linecap:square;stroke-linejoin:miter;"/>
   </g>
   <g id="text_13">
    <text style="font-family:DejaVu Sans;font-size:9.6px;font-style:normal;font-weight:normal;text-anchor:middle;" transform="rotate(-0, 134.14802, 8.0145)" x="134.14802" y="8.0145">Before Choice</text>
   </g>
   <g id="text_14">
    <text style="font-family:DejaVu Sans;font-size:9.6px;font-style:normal;font-weight:bold;text-anchor:start;" transform="rotate(-0, 60.028775, 8.0145)" x="60.028775" y="8.0145">A</text>
   </g>
  </g>
  <g id="axes_2">
   <g id="patch_7">
    <path d="M 283.544624 149.9145 
L 366.928775 149.9145 
L 366.928775 14.0145 
L 283.544624 14.0145 
z
" style="fill:none;"/>
   </g>
   <g id="matplotlib.axis_3"/>
   <g id="matplotlib.axis_4">
    <g id="ytick_8">
     <g id="line2d_14">
      <g>
       <use style="stroke:#000000;" x="283.544624" xlink:href="#m2cfbd57278" y="136.301419"/>
      </g>
     </g>
     <g id="text_15">
      <text style="font-family:DejaVu Sans;font-size:8.8px;font-style:normal;font-weight:normal;text-anchor:end;" transform="rotate(-0, 275.244624, 139.644731)" x="275.244624" y="139.644731">0.475</text>
     </g>
    </g>
    <g id="ytick_9">
     <g id="line2d_15">
      <g>
       <use style="stroke:#000000;" x="283.544624" xlink:href="#m2cfbd57278" y="101.8637"/>
      </g>
     </g>
     <g id="text_16">
      <text style="font-family:DejaVu Sans;font-size:8.8px;font-style:normal;font-weight:normal;text-anchor:end;" transform="rotate(-0, 275.244624, 105.207013)" x="275.244624" y="105.207013">0.480</text>
     </g>
    </g>
    <g id="ytick_10">
     <g id="line2d_16">
      <g>
       <use style="stroke:#000000;" x="283.544624" xlink:href="#m2cfbd57278" y="67.425982"/>
      </g>
     </g>
     <g id="text_17">
      <text style="font-family:DejaVu Sans;font-size:8.8px;font-style:normal;font-weight:normal;text-anchor:end;" transform="rotate(-0, 275.244624, 70.769294)" x="275.244624" y="70.769294">0.485</text>
     </g>
    </g>
    <g id="ytick_11">
     <g id="line2d_17">
      <g>
       <use style="stroke:#000000;" x="283.544624" xlink:href="#m2cfbd57278" y="32.988264"/>
      </g>
     </g>
     <g id="text_18">
      <text style="font-family:DejaVu Sans;font-size:8.8px;font-style:normal;font-weight:normal;text-anchor:end;" transform="rotate(-0, 275.244624, 36.331576)" x="275.244624" y="36.331576">0.490</text>
     </g>
    </g>
    <g id="text_19">
     <text style="font-family:DejaVu Sans;font-size:9.6px;font-style:normal;font-weight:normal;" transform="translate(233.305474 148.2045)rotate(-90)">Human Test Data Accuracy </text>
     <text style="font-family:DejaVu Sans;font-size:9.6px;font-style:normal;font-weight:normal;" transform="translate(244.055374 159.753)rotate(-90)"> (Pearson Correlation Coefficient</text>
    </g>
   </g>
   <g id="LineCollection_4">
    <path clip-path="url(#p35ebe51321)" d="M 287.334813 143.737227 
L 287.334813 127.012278 
" style="fill:none;stroke:#ff0000;stroke-width:1.2;"/>
   </g>
   <g id="LineCollection_5">
    <path clip-path="url(#p35ebe51321)" d="M 325.2367 131.008972 
L 325.2367 114.117307 
" style="fill:none;stroke:#0000ff;stroke-width:1.2;"/>
   </g>
   <g id="LineCollection_6">
    <path clip-path="url(#p35ebe51321)" d="M 363.138586 38.047315 
L 363.138586 20.191773 
" style="fill:none;stroke:#800080;stroke-width:1.2;"/>
   </g>
   <g id="line2d_18">
    <path clip-path="url(#p35ebe51321)" d="M 287.334813 135.374752 
" style="fill:none;stroke:#ff0000;stroke-linecap:square;stroke-width:1.2;"/>
    <defs>
     <path d="M -2.4 2.4 
L 2.4 2.4 
L 2.4 -2.4 
L -2.4 -2.4 
z
" id="mbf18d5dd61" style="stroke:#ff0000;stroke-linejoin:miter;"/>
    </defs>
    <g clip-path="url(#p35ebe51321)">
     <use style="fill:#ff0000;stroke:#ff0000;stroke-linejoin:miter;" x="287.334813" xlink:href="#mbf18d5dd61" y="135.374752"/>
    </g>
   </g>
   <g id="line2d_19">
    <path clip-path="url(#p35ebe51321)" d="M 325.2367 122.56314 
" style="fill:none;stroke:#0000ff;stroke-linecap:square;stroke-width:1.2;"/>
    <defs>
     <path d="M -2.4 2.4 
L 2.4 2.4 
L 2.4 -2.4 
L -2.4 -2.4 
z
" id="me7cd99b10e" style="stroke:#0000ff;stroke-linejoin:miter;"/>
    </defs>
    <g clip-path="url(#p35ebe51321)">
     <use style="fill:#0000ff;stroke:#0000ff;stroke-linejoin:miter;" x="325.2367" xlink:href="#me7cd99b10e" y="122.56314"/>
    </g>
   </g>
   <g id="line2d_20">
    <path clip-path="url(#p35ebe51321)" d="M 363.138586 29.119544 
" style="fill:none;stroke:#800080;stroke-linecap:square;stroke-width:1.2;"/>
    <defs>
     <path d="M -2.4 2.4 
L 2.4 2.4 
L 2.4 -2.4 
L -2.4 -2.4 
z
" id="m9c64fc1418" style="stroke:#800080;stroke-linejoin:miter;"/>
    </defs>
    <g clip-path="url(#p35ebe51321)">
     <use style="fill:#800080;stroke:#800080;stroke-linejoin:miter;" x="363.138586" xlink:href="#m9c64fc1418" y="29.119544"/>
    </g>
   </g>
   <g id="patch_8">
    <path d="M 283.544624 149.9145 
L 283.544624 14.0145 
" style="fill:none;stroke:#000000;stroke-linecap:square;stroke-linejoin:miter;"/>
   </g>
   <g id="patch_9">
    <path d="M 366.928775 149.9145 
L 366.928775 14.0145 
" style="fill:none;stroke:#000000;stroke-linecap:square;stroke-linejoin:miter;"/>
   </g>
   <g id="patch_10">
    <path d="M 283.544624 149.9145 
L 366.928775 149.9145 
" style="fill:none;stroke:#000000;stroke-linecap:square;stroke-linejoin:miter;"/>
   </g>
   <g id="patch_11">
    <path d="M 283.544624 14.0145 
L 366.928775 14.0145 
" style="fill:none;stroke:#000000;stroke-linecap:square;stroke-linejoin:miter;"/>
   </g>
   <g id="text_20">
    <text style="font-family:DejaVu Sans;font-size:9.6px;font-style:normal;font-weight:normal;text-anchor:middle;" transform="rotate(-0, 325.2367, 8.0145)" x="325.2367" y="8.0145">After Choice</text>
   </g>
   <g id="text_21">
    <text style="font-family:DejaVu Sans;font-size:9.6px;font-style:normal;font-weight:bold;text-anchor:start;" transform="rotate(-0, 283.544624, 8.0145)" x="283.544624" y="8.0145">B</text>
   </g>
   <g id="legend_1">
    <g id="patch_12">
     <path d="M 372.857983 95.5545 
L 468.864983 95.5545 
Q 470.624983 95.5545 470.624983 93.7945 
L 470.624983 32.379175 
Q 470.624983 30.619175 468.864983 30.619175 
L 372.857983 30.619175 
Q 371.097983 30.619175 371.097983 32.379175 
L 371.097983 93.7945 
Q 371.097983 95.5545 372.857983 95.5545 
z
" style="fill:#ffffff;opacity:0.8;stroke:#cccccc;stroke-linejoin:miter;stroke-width:0.8;"/>
    </g>
    <g id="text_22">
     <text style="font-family:DejaVu Sans;font-size:9.6px;font-style:normal;font-weight:normal;text-anchor:start;" transform="rotate(-0, 374.617983, 41.433675)" x="374.617983" y="41.433675">LSTM Training Data</text>
    </g>
    <g id="LineCollection_7">
     <path d="M 385.430483 55.8368 
L 385.430483 47.0368 
" style="fill:none;stroke:#ff0000;stroke-width:1.2;"/>
    </g>
    <g id="line2d_21">
     <path d="M 376.630483 51.4368 
L 394.230483 51.4368 
" style="fill:none;stroke:#ff0000;stroke-linecap:square;stroke-width:1.2;"/>
    </g>
    <g id="line2d_22">
     <g>
      <use style="fill:#ff0000;stroke:#ff0000;stroke-linejoin:miter;" x="385.430483" xlink:href="#mbf18d5dd61" y="51.4368"/>
     </g>
    </g>
    <g id="text_23">
     <text style="font-family:DejaVu Sans;font-size:8.8px;font-style:normal;font-weight:normal;text-anchor:start;" transform="rotate(-0, 401.270483, 54.5168)" x="401.270483" y="54.5168">Simulated</text>
    </g>
    <g id="LineCollection_8">
     <path d="M 385.430483 68.75355 
L 385.430483 59.95355 
" style="fill:none;stroke:#0000ff;stroke-width:1.2;"/>
    </g>
    <g id="line2d_23">
     <path d="M 376.630483 64.35355 
L 394.230483 64.35355 
" style="fill:none;stroke:#0000ff;stroke-linecap:square;stroke-width:1.2;"/>
    </g>
    <g id="line2d_24">
     <g>
      <use style="fill:#0000ff;stroke:#0000ff;stroke-linejoin:miter;" x="385.430483" xlink:href="#me7cd99b10e" y="64.35355"/>
     </g>
    </g>
    <g id="text_24">
     <text style="font-family:DejaVu Sans;font-size:8.8px;font-style:normal;font-weight:normal;text-anchor:start;" transform="rotate(-0, 401.270483, 67.43355)" x="401.270483" y="67.43355">Human</text>
    </g>
    <g id="LineCollection_9">
     <path d="M 385.430483 87.5124 
L 385.430483 78.7124 
" style="fill:none;stroke:#800080;stroke-width:1.2;"/>
    </g>
    <g id="line2d_25">
     <path d="M 376.630483 83.1124 
L 394.230483 83.1124 
" style="fill:none;stroke:#800080;stroke-linecap:square;stroke-width:1.2;"/>
    </g>
    <g id="line2d_26">
     <g>
      <use style="fill:#800080;stroke:#800080;stroke-linejoin:miter;" x="385.430483" xlink:href="#m9c64fc1418" y="83.1124"/>
     </g>
    </g>
    <g id="text_25">
     <text style="font-family:DejaVu Sans;font-size:8.8px;font-style:normal;font-weight:normal;" transform="translate(401.270483 80.3503)">Simulated and</text>
     <text style="font-family:DejaVu Sans;font-size:8.8px;font-style:normal;font-weight:normal;" transform="translate(401.270483 90.204375)">Human</text>
    </g>
   </g>
  </g>
 </g>
 <defs>
  <clipPath id="pf63ab7e95e">
   <rect height="135.9" width="148.238491" x="60.028775" y="14.0145"/>
  </clipPath>
  <clipPath id="p35ebe51321">
   <rect height="135.9" width="83.384151" x="283.544624" y="14.0145"/>
  </clipPath>
 </defs>
</svg>
