<?xml version="1.0" encoding="utf-8" standalone="no"?>
<!DOCTYPE svg PUBLIC "-//W3C//DTD SVG 1.1//EN"
  "http://www.w3.org/Graphics/SVG/1.1/DTD/svg11.dtd">
<!-- Created with matplotlib (https://matplotlib.org/) -->
<svg height="179.30225pt" version="1.1" viewBox="0 0 469.904983 179.30225" width="469.904983pt" xmlns="http://www.w3.org/2000/svg" xmlns:xlink="http://www.w3.org/1999/xlink">
 <defs>
  <style type="text/css">
*{stroke-linecap:butt;stroke-linejoin:round;}
  </style>
 </defs>
 <g id="figure_1">
  <g id="patch_1">
   <path d="M 0 179.30225 
L 469.904983 179.30225 
L 469.904983 0 
L 0 0 
z
" style="fill:none;"/>
  </g>
  <g id="axes_1">
   <g id="patch_2">
    <path d="M 59.308775 149.1945 
L 207.547266 149.1945 
L 207.547266 13.2945 
L 59.308775 13.2945 
z
" style="fill:none;"/>
   </g>
   <g id="matplotlib.axis_1">
    <g id="xtick_1">
     <g id="line2d_1">
      <defs>
       <path d="M 0 0 
L 0 4.8 
" id="ma4692ccbe7" style="stroke:#000000;"/>
      </defs>
      <g>
       <use style="stroke:#000000;" x="89.828464" xlink:href="#ma4692ccbe7" y="149.1945"/>
      </g>
     </g>
     <g id="text_1">
      <text style="font-family:DejaVu Sans;font-size:8.8px;font-style:normal;font-weight:normal;text-anchor:middle;" transform="rotate(-0, 89.828464, 164.181125)" x="89.828464" y="164.181125">−1.5</text>
     </g>
    </g>
    <g id="xtick_2">
     <g id="line2d_2">
      <g>
       <use style="stroke:#000000;" x="129.464424" xlink:href="#ma4692ccbe7" y="149.1945"/>
      </g>
     </g>
     <g id="text_2">
      <text style="font-family:DejaVu Sans;font-size:8.8px;font-style:normal;font-weight:normal;text-anchor:middle;" transform="rotate(-0, 129.464424, 164.181125)" x="129.464424" y="164.181125">−1.0</text>
     </g>
    </g>
    <g id="xtick_3">
     <g id="line2d_3">
      <g>
       <use style="stroke:#000000;" x="169.100384" xlink:href="#ma4692ccbe7" y="149.1945"/>
      </g>
     </g>
     <g id="text_3">
      <text style="font-family:DejaVu Sans;font-size:8.8px;font-style:normal;font-weight:normal;text-anchor:middle;" transform="rotate(-0, 169.100384, 164.181125)" x="169.100384" y="164.181125">−0.5</text>
     </g>
    </g>
    <g id="text_4">
     <text style="font-family:DejaVu Sans;font-size:9.6px;font-style:normal;font-weight:normal;text-anchor:middle;" transform="rotate(-0, 133.42802, 177.30575)" x="133.42802" y="177.30575">Time Point Relative to Choice (Seconds)</text>
    </g>
   </g>
   <g id="matplotlib.axis_2">
    <g id="ytick_1">
     <g id="line2d_4">
      <defs>
       <path d="M 0 0 
L -4.8 0 
" id="m1df5565e8e" style="stroke:#000000;"/>
      </defs>
      <g>
       <use style="stroke:#000000;" x="59.308775" xlink:href="#m1df5565e8e" y="149.105276"/>
      </g>
     </g>
     <g id="text_5">
      <text style="font-family:DejaVu Sans;font-size:8.8px;font-style:normal;font-weight:normal;text-anchor:end;" transform="rotate(-0, 51.008775, 152.448588)" x="51.008775" y="152.448588">−0.05</text>
     </g>
    </g>
    <g id="ytick_2">
     <g id="line2d_5">
      <g>
       <use style="stroke:#000000;" x="59.308775" xlink:href="#m1df5565e8e" y="128.299392"/>
      </g>
     </g>
     <g id="text_6">
      <text style="font-family:DejaVu Sans;font-size:8.8px;font-style:normal;font-weight:normal;text-anchor:end;" transform="rotate(-0, 51.008775, 131.642705)" x="51.008775" y="131.642705">0.00</text>
     </g>
    </g>
    <g id="ytick_3">
     <g id="line2d_6">
      <g>
       <use style="stroke:#000000;" x="59.308775" xlink:href="#m1df5565e8e" y="107.493509"/>
      </g>
     </g>
     <g id="text_7">
      <text style="font-family:DejaVu Sans;font-size:8.8px;font-style:normal;font-weight:normal;text-anchor:end;" transform="rotate(-0, 51.008775, 110.836821)" x="51.008775" y="110.836821">0.05</text>
     </g>
    </g>
    <g id="ytick_4">
     <g id="line2d_7">
      <g>
       <use style="stroke:#000000;" x="59.308775" xlink:href="#m1df5565e8e" y="86.687625"/>
      </g>
     </g>
     <g id="text_8">
      <text style="font-family:DejaVu Sans;font-size:8.8px;font-style:normal;font-weight:normal;text-anchor:end;" transform="rotate(-0, 51.008775, 90.030937)" x="51.008775" y="90.030937">0.10</text>
     </g>
    </g>
    <g id="ytick_5">
     <g id="line2d_8">
      <g>
       <use style="stroke:#000000;" x="59.308775" xlink:href="#m1df5565e8e" y="65.881741"/>
      </g>
     </g>
     <g id="text_9">
      <text style="font-family:DejaVu Sans;font-size:8.8px;font-style:normal;font-weight:normal;text-anchor:end;" transform="rotate(-0, 51.008775, 69.225054)" x="51.008775" y="69.225054">0.15</text>
     </g>
    </g>
    <g id="ytick_6">
     <g id="line2d_9">
      <g>
       <use style="stroke:#000000;" x="59.308775" xlink:href="#m1df5565e8e" y="45.075858"/>
      </g>
     </g>
     <g id="text_10">
      <text style="font-family:DejaVu Sans;font-size:8.8px;font-style:normal;font-weight:normal;text-anchor:end;" transform="rotate(-0, 51.008775, 48.41917)" x="51.008775" y="48.41917">0.20</text>
     </g>
    </g>
    <g id="ytick_7">
     <g id="line2d_10">
      <g>
       <use style="stroke:#000000;" x="59.308775" xlink:href="#m1df5565e8e" y="24.269974"/>
      </g>
     </g>
     <g id="text_11">
      <text style="font-family:DejaVu Sans;font-size:8.8px;font-style:normal;font-weight:normal;text-anchor:end;" transform="rotate(-0, 51.008775, 27.613287)" x="51.008775" y="27.613287">0.25</text>
     </g>
    </g>
    <g id="text_12">
     <text style="font-family:DejaVu Sans;font-size:9.6px;font-style:normal;font-weight:normal;" transform="translate(7.2945 147.4845)rotate(-90)">Human Test Data Accuracy </text>
     <text style="font-family:DejaVu Sans;font-size:9.6px;font-style:normal;font-weight:normal;" transform="translate(18.0444 159.033)rotate(-90)"> (Pearson Correlation Coefficient</text>
    </g>
   </g>
   <g id="LineCollection_1">
    <path clip-path="url(#p53c21dd24b)" d="M 66.046888 121.007183 
L 66.046888 119.047898 
" style="fill:none;stroke:#ff0000;stroke-width:1.2;"/>
    <path clip-path="url(#p53c21dd24b)" d="M 73.97408 124.623245 
L 73.97408 122.461142 
" style="fill:none;stroke:#ff0000;stroke-width:1.2;"/>
    <path clip-path="url(#p53c21dd24b)" d="M 81.901272 130.017039 
L 81.901272 127.375216 
" style="fill:none;stroke:#ff0000;stroke-width:1.2;"/>
    <path clip-path="url(#p53c21dd24b)" d="M 89.828464 128.788866 
L 89.828464 126.639739 
" style="fill:none;stroke:#ff0000;stroke-width:1.2;"/>
    <path clip-path="url(#p53c21dd24b)" d="M 97.755656 135.576417 
L 97.755656 133.402741 
" style="fill:none;stroke:#ff0000;stroke-width:1.2;"/>
    <path clip-path="url(#p53c21dd24b)" d="M 105.682848 130.940662 
L 105.682848 128.83378 
" style="fill:none;stroke:#ff0000;stroke-width:1.2;"/>
    <path clip-path="url(#p53c21dd24b)" d="M 113.61004 134.528431 
L 113.61004 132.350678 
" style="fill:none;stroke:#ff0000;stroke-width:1.2;"/>
    <path clip-path="url(#p53c21dd24b)" d="M 121.537232 143.017227 
L 121.537232 140.496409 
" style="fill:none;stroke:#ff0000;stroke-width:1.2;"/>
    <path clip-path="url(#p53c21dd24b)" d="M 129.464424 126.39105 
L 129.464424 124.480318 
" style="fill:none;stroke:#ff0000;stroke-width:1.2;"/>
    <path clip-path="url(#p53c21dd24b)" d="M 137.391616 103.727092 
L 137.391616 101.640628 
" style="fill:none;stroke:#ff0000;stroke-width:1.2;"/>
    <path clip-path="url(#p53c21dd24b)" d="M 145.318808 89.381211 
L 145.318808 87.128882 
" style="fill:none;stroke:#ff0000;stroke-width:1.2;"/>
    <path clip-path="url(#p53c21dd24b)" d="M 153.246 76.540643 
L 153.246 73.973094 
" style="fill:none;stroke:#ff0000;stroke-width:1.2;"/>
    <path clip-path="url(#p53c21dd24b)" d="M 161.173192 74.47076 
L 161.173192 72.019198 
" style="fill:none;stroke:#ff0000;stroke-width:1.2;"/>
    <path clip-path="url(#p53c21dd24b)" d="M 169.100384 62.390554 
L 169.100384 59.476341 
" style="fill:none;stroke:#ff0000;stroke-width:1.2;"/>
    <path clip-path="url(#p53c21dd24b)" d="M 177.027576 50.400344 
L 177.027576 47.005999 
" style="fill:none;stroke:#ff0000;stroke-width:1.2;"/>
    <path clip-path="url(#p53c21dd24b)" d="M 184.954768 44.931486 
L 184.954768 41.386313 
" style="fill:none;stroke:#ff0000;stroke-width:1.2;"/>
    <path clip-path="url(#p53c21dd24b)" d="M 192.88196 49.995064 
L 192.88196 46.62644 
" style="fill:none;stroke:#ff0000;stroke-width:1.2;"/>
    <path clip-path="url(#p53c21dd24b)" d="M 200.809152 38.922201 
L 200.809152 35.282306 
" style="fill:none;stroke:#ff0000;stroke-width:1.2;"/>
   </g>
   <g id="LineCollection_2">
    <path clip-path="url(#p53c21dd24b)" d="M 66.046888 117.119609 
L 66.046888 113.964039 
" style="fill:none;stroke:#0000ff;stroke-width:1.2;"/>
    <path clip-path="url(#p53c21dd24b)" d="M 73.97408 117.299008 
L 73.97408 114.061574 
" style="fill:none;stroke:#0000ff;stroke-width:1.2;"/>
    <path clip-path="url(#p53c21dd24b)" d="M 81.901272 120.424242 
L 81.901272 117.360684 
" style="fill:none;stroke:#0000ff;stroke-width:1.2;"/>
    <path clip-path="url(#p53c21dd24b)" d="M 89.828464 119.327032 
L 89.828464 116.484136 
" style="fill:none;stroke:#0000ff;stroke-width:1.2;"/>
    <path clip-path="url(#p53c21dd24b)" d="M 97.755656 128.0437 
L 97.755656 125.158594 
" style="fill:none;stroke:#0000ff;stroke-width:1.2;"/>
    <path clip-path="url(#p53c21dd24b)" d="M 105.682848 124.386522 
L 105.682848 121.653094 
" style="fill:none;stroke:#0000ff;stroke-width:1.2;"/>
    <path clip-path="url(#p53c21dd24b)" d="M 113.61004 127.149134 
L 113.61004 124.590082 
" style="fill:none;stroke:#0000ff;stroke-width:1.2;"/>
    <path clip-path="url(#p53c21dd24b)" d="M 121.537232 133.942989 
L 121.537232 131.34341 
" style="fill:none;stroke:#0000ff;stroke-width:1.2;"/>
    <path clip-path="url(#p53c21dd24b)" d="M 129.464424 123.160245 
L 129.464424 120.806922 
" style="fill:none;stroke:#0000ff;stroke-width:1.2;"/>
    <path clip-path="url(#p53c21dd24b)" d="M 137.391616 106.190531 
L 137.391616 104.040119 
" style="fill:none;stroke:#0000ff;stroke-width:1.2;"/>
    <path clip-path="url(#p53c21dd24b)" d="M 145.318808 94.78509 
L 145.318808 92.606734 
" style="fill:none;stroke:#0000ff;stroke-width:1.2;"/>
    <path clip-path="url(#p53c21dd24b)" d="M 153.246 83.119029 
L 153.246 80.878872 
" style="fill:none;stroke:#0000ff;stroke-width:1.2;"/>
    <path clip-path="url(#p53c21dd24b)" d="M 161.173192 78.640565 
L 161.173192 76.493511 
" style="fill:none;stroke:#0000ff;stroke-width:1.2;"/>
    <path clip-path="url(#p53c21dd24b)" d="M 169.100384 67.084035 
L 169.100384 64.883951 
" style="fill:none;stroke:#0000ff;stroke-width:1.2;"/>
    <path clip-path="url(#p53c21dd24b)" d="M 177.027576 54.362711 
L 177.027576 52.04782 
" style="fill:none;stroke:#0000ff;stroke-width:1.2;"/>
    <path clip-path="url(#p53c21dd24b)" d="M 184.954768 44.630005 
L 184.954768 42.155658 
" style="fill:none;stroke:#0000ff;stroke-width:1.2;"/>
    <path clip-path="url(#p53c21dd24b)" d="M 192.88196 44.012815 
L 192.88196 41.466021 
" style="fill:none;stroke:#0000ff;stroke-width:1.2;"/>
    <path clip-path="url(#p53c21dd24b)" d="M 200.809152 33.227074 
L 200.809152 30.647739 
" style="fill:none;stroke:#0000ff;stroke-width:1.2;"/>
   </g>
   <g id="LineCollection_3">
    <path clip-path="url(#p53c21dd24b)" d="M 66.046888 102.069552 
L 66.046888 98.977829 
" style="fill:none;stroke:#800080;stroke-width:1.2;"/>
    <path clip-path="url(#p53c21dd24b)" d="M 73.97408 108.884641 
L 73.97408 105.906391 
" style="fill:none;stroke:#800080;stroke-width:1.2;"/>
    <path clip-path="url(#p53c21dd24b)" d="M 81.901272 109.86135 
L 81.901272 106.907923 
" style="fill:none;stroke:#800080;stroke-width:1.2;"/>
    <path clip-path="url(#p53c21dd24b)" d="M 89.828464 110.901565 
L 89.828464 108.092922 
" style="fill:none;stroke:#800080;stroke-width:1.2;"/>
    <path clip-path="url(#p53c21dd24b)" d="M 97.755656 115.073936 
L 97.755656 112.338668 
" style="fill:none;stroke:#800080;stroke-width:1.2;"/>
    <path clip-path="url(#p53c21dd24b)" d="M 105.682848 113.57111 
L 105.682848 111.042174 
" style="fill:none;stroke:#800080;stroke-width:1.2;"/>
    <path clip-path="url(#p53c21dd24b)" d="M 113.61004 110.164935 
L 113.61004 107.80153 
" style="fill:none;stroke:#800080;stroke-width:1.2;"/>
    <path clip-path="url(#p53c21dd24b)" d="M 121.537232 113.146723 
L 121.537232 110.852882 
" style="fill:none;stroke:#800080;stroke-width:1.2;"/>
    <path clip-path="url(#p53c21dd24b)" d="M 129.464424 107.324453 
L 129.464424 105.177083 
" style="fill:none;stroke:#800080;stroke-width:1.2;"/>
    <path clip-path="url(#p53c21dd24b)" d="M 137.391616 94.863858 
L 137.391616 92.899597 
" style="fill:none;stroke:#800080;stroke-width:1.2;"/>
    <path clip-path="url(#p53c21dd24b)" d="M 145.318808 83.028831 
L 145.318808 81.098604 
" style="fill:none;stroke:#800080;stroke-width:1.2;"/>
    <path clip-path="url(#p53c21dd24b)" d="M 153.246 73.597068 
L 153.246 71.791384 
" style="fill:none;stroke:#800080;stroke-width:1.2;"/>
    <path clip-path="url(#p53c21dd24b)" d="M 161.173192 67.248798 
L 161.173192 65.454327 
" style="fill:none;stroke:#800080;stroke-width:1.2;"/>
    <path clip-path="url(#p53c21dd24b)" d="M 169.100384 61.353601 
L 169.100384 59.63033 
" style="fill:none;stroke:#800080;stroke-width:1.2;"/>
    <path clip-path="url(#p53c21dd24b)" d="M 177.027576 47.602474 
L 177.027576 45.826378 
" style="fill:none;stroke:#800080;stroke-width:1.2;"/>
    <path clip-path="url(#p53c21dd24b)" d="M 184.954768 41.223932 
L 184.954768 39.457358 
" style="fill:none;stroke:#800080;stroke-width:1.2;"/>
    <path clip-path="url(#p53c21dd24b)" d="M 192.88196 35.511338 
L 192.88196 33.748412 
" style="fill:none;stroke:#800080;stroke-width:1.2;"/>
    <path clip-path="url(#p53c21dd24b)" d="M 200.809152 21.334632 
L 200.809152 19.471773 
" style="fill:none;stroke:#800080;stroke-width:1.2;"/>
   </g>
   <g id="line2d_11">
    <path clip-path="url(#p53c21dd24b)" d="M 66.046888 120.027541 
L 73.97408 123.542194 
L 81.901272 128.696128 
L 89.828464 127.714303 
L 97.755656 134.489579 
L 105.682848 129.887221 
L 113.61004 133.439554 
L 121.537232 141.756818 
L 129.464424 125.435684 
L 137.391616 102.68386 
L 145.318808 88.255047 
L 153.246 75.256868 
L 161.173192 73.244979 
L 169.100384 60.933447 
L 177.027576 48.703172 
L 184.954768 43.1589 
L 192.88196 48.310752 
L 200.809152 37.102253 
" style="fill:none;stroke:#ff0000;stroke-linecap:square;stroke-width:1.2;"/>
   </g>
   <g id="line2d_12">
    <path clip-path="url(#p53c21dd24b)" d="M 66.046888 115.541824 
L 73.97408 115.680291 
L 81.901272 118.892463 
L 89.828464 117.905584 
L 97.755656 126.601147 
L 105.682848 123.019808 
L 113.61004 125.869608 
L 121.537232 132.643199 
L 129.464424 121.983584 
L 137.391616 105.115325 
L 145.318808 93.695912 
L 153.246 81.998951 
L 161.173192 77.567038 
L 169.100384 65.983993 
L 177.027576 53.205265 
L 184.954768 43.392832 
L 192.88196 42.739418 
L 200.809152 31.937407 
" style="fill:none;stroke:#0000ff;stroke-linecap:square;stroke-width:1.2;"/>
   </g>
   <g id="line2d_13">
    <path clip-path="url(#p53c21dd24b)" d="M 66.046888 100.523691 
L 73.97408 107.395516 
L 81.901272 108.384637 
L 89.828464 109.497243 
L 97.755656 113.706302 
L 105.682848 112.306642 
L 113.61004 108.983232 
L 121.537232 111.999803 
L 129.464424 106.250768 
L 137.391616 93.881728 
L 145.318808 82.063717 
L 153.246 72.694226 
L 161.173192 66.351562 
L 169.100384 60.491965 
L 177.027576 46.714426 
L 184.954768 40.340645 
L 192.88196 34.629875 
L 200.809152 20.403203 
" style="fill:none;stroke:#800080;stroke-linecap:square;stroke-width:1.2;"/>
   </g>
   <g id="patch_3">
    <path d="M 59.308775 149.1945 
L 59.308775 13.2945 
" style="fill:none;stroke:#000000;stroke-linecap:square;stroke-linejoin:miter;"/>
   </g>
   <g id="patch_4">
    <path d="M 207.547266 149.1945 
L 207.547266 13.2945 
" style="fill:none;stroke:#000000;stroke-linecap:square;stroke-linejoin:miter;"/>
   </g>
   <g id="patch_5">
    <path d="M 59.308775 149.1945 
L 207.547266 149.1945 
" style="fill:none;stroke:#000000;stroke-linecap:square;stroke-linejoin:miter;"/>
   </g>
   <g id="patch_6">
    <path d="M 59.308775 13.2945 
L 207.547266 13.2945 
" style="fill:none;stroke:#000000;stroke-linecap:square;stroke-linejoin:miter;"/>
   </g>
   <g id="text_13">
    <text style="font-family:DejaVu Sans;font-size:9.6px;font-style:normal;font-weight:normal;text-anchor:middle;" transform="rotate(-0, 133.42802, 7.2945)" x="133.42802" y="7.2945">Before Choice</text>
   </g>
   <g id="text_14">
    <text style="font-family:DejaVu Sans;font-size:9.6px;font-style:normal;font-weight:bold;text-anchor:start;" transform="rotate(-0, 59.308775, 7.2945)" x="59.308775" y="7.2945">A</text>
   </g>
  </g>
  <g id="axes_2">
   <g id="patch_7">
    <path d="M 282.824624 149.1945 
L 366.208775 149.1945 
L 366.208775 13.2945 
L 282.824624 13.2945 
z
" style="fill:none;"/>
   </g>
   <g id="matplotlib.axis_3"/>
   <g id="matplotlib.axis_4">
    <g id="ytick_8">
     <g id="line2d_14">
      <g>
       <use style="stroke:#000000;" x="282.824624" xlink:href="#m1df5565e8e" y="135.581419"/>
      </g>
     </g>
     <g id="text_15">
      <text style="font-family:DejaVu Sans;font-size:8.8px;font-style:normal;font-weight:normal;text-anchor:end;" transform="rotate(-0, 274.524624, 138.924731)" x="274.524624" y="138.924731">0.475</text>
     </g>
    </g>
    <g id="ytick_9">
     <g id="line2d_15">
      <g>
       <use style="stroke:#000000;" x="282.824624" xlink:href="#m1df5565e8e" y="101.1437"/>
      </g>
     </g>
     <g id="text_16">
      <text style="font-family:DejaVu Sans;font-size:8.8px;font-style:normal;font-weight:normal;text-anchor:end;" transform="rotate(-0, 274.524624, 104.487013)" x="274.524624" y="104.487013">0.480</text>
     </g>
    </g>
    <g id="ytick_10">
     <g id="line2d_16">
      <g>
       <use style="stroke:#000000;" x="282.824624" xlink:href="#m1df5565e8e" y="66.705982"/>
      </g>
     </g>
     <g id="text_17">
      <text style="font-family:DejaVu Sans;font-size:8.8px;font-style:normal;font-weight:normal;text-anchor:end;" transform="rotate(-0, 274.524624, 70.049294)" x="274.524624" y="70.049294">0.485</text>
     </g>
    </g>
    <g id="ytick_11">
     <g id="line2d_17">
      <g>
       <use style="stroke:#000000;" x="282.824624" xlink:href="#m1df5565e8e" y="32.268264"/>
      </g>
     </g>
     <g id="text_18">
      <text style="font-family:DejaVu Sans;font-size:8.8px;font-style:normal;font-weight:normal;text-anchor:end;" transform="rotate(-0, 274.524624, 35.611576)" x="274.524624" y="35.611576">0.490</text>
     </g>
    </g>
    <g id="text_19">
     <text style="font-family:DejaVu Sans;font-size:9.6px;font-style:normal;font-weight:normal;" transform="translate(232.585474 147.4845)rotate(-90)">Human Test Data Accuracy </text>
     <text style="font-family:DejaVu Sans;font-size:9.6px;font-style:normal;font-weight:normal;" transform="translate(243.335374 159.033)rotate(-90)"> (Pearson Correlation Coefficient</text>
    </g>
   </g>
   <g id="LineCollection_4">
    <path clip-path="url(#p0ed8c09740)" d="M 286.614813 143.017227 
L 286.614813 126.292278 
" style="fill:none;stroke:#ff0000;stroke-width:1.2;"/>
   </g>
   <g id="LineCollection_5">
    <path clip-path="url(#p0ed8c09740)" d="M 324.5167 130.288972 
L 324.5167 113.397307 
" style="fill:none;stroke:#0000ff;stroke-width:1.2;"/>
   </g>
   <g id="LineCollection_6">
    <path clip-path="url(#p0ed8c09740)" d="M 362.418586 37.327315 
L 362.418586 19.471773 
" style="fill:none;stroke:#800080;stroke-width:1.2;"/>
   </g>
   <g id="line2d_18">
    <path clip-path="url(#p0ed8c09740)" d="M 286.614813 134.654752 
" style="fill:none;stroke:#ff0000;stroke-linecap:square;stroke-width:1.2;"/>
    <defs>
     <path d="M -2.4 2.4 
L 2.4 2.4 
L 2.4 -2.4 
L -2.4 -2.4 
z
" id="mc43a8f9dfc" style="stroke:#ff0000;stroke-linejoin:miter;"/>
    </defs>
    <g clip-path="url(#p0ed8c09740)">
     <use style="fill:#ff0000;stroke:#ff0000;stroke-linejoin:miter;" x="286.614813" xlink:href="#mc43a8f9dfc" y="134.654752"/>
    </g>
   </g>
   <g id="line2d_19">
    <path clip-path="url(#p0ed8c09740)" d="M 324.5167 121.84314 
" style="fill:none;stroke:#0000ff;stroke-linecap:square;stroke-width:1.2;"/>
    <defs>
     <path d="M -2.4 2.4 
L 2.4 2.4 
L 2.4 -2.4 
L -2.4 -2.4 
z
" id="mc45914e843" style="stroke:#0000ff;stroke-linejoin:miter;"/>
    </defs>
    <g clip-path="url(#p0ed8c09740)">
     <use style="fill:#0000ff;stroke:#0000ff;stroke-linejoin:miter;" x="324.5167" xlink:href="#mc45914e843" y="121.84314"/>
    </g>
   </g>
   <g id="line2d_20">
    <path clip-path="url(#p0ed8c09740)" d="M 362.418586 28.399544 
" style="fill:none;stroke:#800080;stroke-linecap:square;stroke-width:1.2;"/>
    <defs>
     <path d="M -2.4 2.4 
L 2.4 2.4 
L 2.4 -2.4 
L -2.4 -2.4 
z
" id="mc42282d4ef" style="stroke:#800080;stroke-linejoin:miter;"/>
    </defs>
    <g clip-path="url(#p0ed8c09740)">
     <use style="fill:#800080;stroke:#800080;stroke-linejoin:miter;" x="362.418586" xlink:href="#mc42282d4ef" y="28.399544"/>
    </g>
   </g>
   <g id="patch_8">
    <path d="M 282.824624 149.1945 
L 282.824624 13.2945 
" style="fill:none;stroke:#000000;stroke-linecap:square;stroke-linejoin:miter;"/>
   </g>
   <g id="patch_9">
    <path d="M 366.208775 149.1945 
L 366.208775 13.2945 
" style="fill:none;stroke:#000000;stroke-linecap:square;stroke-linejoin:miter;"/>
   </g>
   <g id="patch_10">
    <path d="M 282.824624 149.1945 
L 366.208775 149.1945 
" style="fill:none;stroke:#000000;stroke-linecap:square;stroke-linejoin:miter;"/>
   </g>
   <g id="patch_11">
    <path d="M 282.824624 13.2945 
L 366.208775 13.2945 
" style="fill:none;stroke:#000000;stroke-linecap:square;stroke-linejoin:miter;"/>
   </g>
   <g id="text_20">
    <text style="font-family:DejaVu Sans;font-size:9.6px;font-style:normal;font-weight:normal;text-anchor:middle;" transform="rotate(-0, 324.5167, 7.2945)" x="324.5167" y="7.2945">After Choice</text>
   </g>
   <g id="text_21">
    <text style="font-family:DejaVu Sans;font-size:9.6px;font-style:normal;font-weight:bold;text-anchor:start;" transform="rotate(-0, 282.824624, 7.2945)" x="282.824624" y="7.2945">B</text>
   </g>
   <g id="legend_1">
    <g id="patch_12">
     <path d="M 372.137983 94.8345 
L 468.144983 94.8345 
Q 469.904983 94.8345 469.904983 93.0745 
L 469.904983 31.659175 
Q 469.904983 29.899175 468.144983 29.899175 
L 372.137983 29.899175 
Q 370.377983 29.899175 370.377983 31.659175 
L 370.377983 93.0745 
Q 370.377983 94.8345 372.137983 94.8345 
z
" style="fill:#ffffff;opacity:0.8;stroke:#cccccc;stroke-linejoin:miter;stroke-width:0.8;"/>
    </g>
    <g id="text_22">
     <text style="font-family:DejaVu Sans;font-size:9.6px;font-style:normal;font-weight:normal;text-anchor:start;" transform="rotate(-0, 373.897983, 40.713675)" x="373.897983" y="40.713675">LSTM Training Data</text>
    </g>
    <g id="LineCollection_7">
     <path d="M 384.710483 55.1168 
L 384.710483 46.3168 
" style="fill:none;stroke:#ff0000;stroke-width:1.2;"/>
    </g>
    <g id="line2d_21">
     <path d="M 375.910483 50.7168 
L 393.510483 50.7168 
" style="fill:none;stroke:#ff0000;stroke-linecap:square;stroke-width:1.2;"/>
    </g>
    <g id="line2d_22">
     <g>
      <use style="fill:#ff0000;stroke:#ff0000;stroke-linejoin:miter;" x="384.710483" xlink:href="#mc43a8f9dfc" y="50.7168"/>
     </g>
    </g>
    <g id="text_23">
     <text style="font-family:DejaVu Sans;font-size:8.8px;font-style:normal;font-weight:normal;text-anchor:start;" transform="rotate(-0, 400.550483, 53.7968)" x="400.550483" y="53.7968">Simulated</text>
    </g>
    <g id="LineCollection_8">
     <path d="M 384.710483 68.03355 
L 384.710483 59.23355 
" style="fill:none;stroke:#0000ff;stroke-width:1.2;"/>
    </g>
    <g id="line2d_23">
     <path d="M 375.910483 63.63355 
L 393.510483 63.63355 
" style="fill:none;stroke:#0000ff;stroke-linecap:square;stroke-width:1.2;"/>
    </g>
    <g id="line2d_24">
     <g>
      <use style="fill:#0000ff;stroke:#0000ff;stroke-linejoin:miter;" x="384.710483" xlink:href="#mc45914e843" y="63.63355"/>
     </g>
    </g>
    <g id="text_24">
     <text style="font-family:DejaVu Sans;font-size:8.8px;font-style:normal;font-weight:normal;text-anchor:start;" transform="rotate(-0, 400.550483, 66.71355)" x="400.550483" y="66.71355">Human</text>
    </g>
    <g id="LineCollection_9">
     <path d="M 384.710483 86.7924 
L 384.710483 77.9924 
" style="fill:none;stroke:#800080;stroke-width:1.2;"/>
    </g>
    <g id="line2d_25">
     <path d="M 375.910483 82.3924 
L 393.510483 82.3924 
" style="fill:none;stroke:#800080;stroke-linecap:square;stroke-width:1.2;"/>
    </g>
    <g id="line2d_26">
     <g>
      <use style="fill:#800080;stroke:#800080;stroke-linejoin:miter;" x="384.710483" xlink:href="#mc42282d4ef" y="82.3924"/>
     </g>
    </g>
    <g id="text_25">
     <text style="font-family:DejaVu Sans;font-size:8.8px;font-style:normal;font-weight:normal;" transform="translate(400.550483 79.6303)">Simulated and</text>
     <text style="font-family:DejaVu Sans;font-size:8.8px;font-style:normal;font-weight:normal;" transform="translate(400.550483 89.484375)">Human</text>
    </g>
   </g>
  </g>
 </g>
 <defs>
  <clipPath id="p53c21dd24b">
   <rect height="135.9" width="148.238491" x="59.308775" y="13.2945"/>
  </clipPath>
  <clipPath id="p0ed8c09740">
   <rect height="135.9" width="83.384151" x="282.824624" y="13.2945"/>
  </clipPath>
 </defs>
</svg>
