<?xml version="1.0" encoding="utf-8" standalone="no"?>
<!DOCTYPE svg PUBLIC "-//W3C//DTD SVG 1.1//EN"
  "http://www.w3.org/Graphics/SVG/1.1/DTD/svg11.dtd">
<!-- Created with matplotlib (https://matplotlib.org/) -->
<svg height="179.30225pt" version="1.1" viewBox="0 0 461.88608 179.30225" width="461.88608pt" xmlns="http://www.w3.org/2000/svg" xmlns:xlink="http://www.w3.org/1999/xlink">
 <defs>
  <style type="text/css">
*{stroke-linecap:butt;stroke-linejoin:round;}
  </style>
 </defs>
 <g id="figure_1">
  <g id="patch_1">
   <path d="M 0 179.30225 
L 461.88608 179.30225 
L 461.88608 0 
L 0 0 
z
" style="fill:none;"/>
  </g>
  <g id="axes_1">
   <g id="patch_2">
    <path d="M 118.128477 149.1945 
L 219.583023 149.1945 
L 219.583023 13.2945 
L 118.128477 13.2945 
z
" style="fill:none;"/>
   </g>
   <g id="matplotlib.axis_1">
    <g id="xtick_1">
     <g id="line2d_1">
      <defs>
       <path d="M 0 0 
L 0 4.8 
" id="m1e1a6757bf" style="stroke:#000000;"/>
      </defs>
      <g>
       <use style="stroke:#000000;" x="139.016178" xlink:href="#m1e1a6757bf" y="149.1945"/>
      </g>
     </g>
     <g id="text_1">
      <text style="font-family:DejaVu Sans;font-size:8.8px;font-style:normal;font-weight:normal;text-anchor:middle;" transform="rotate(-0, 139.016178, 164.181125)" x="139.016178" y="164.181125">−1.5</text>
     </g>
    </g>
    <g id="xtick_2">
     <g id="line2d_2">
      <g>
       <use style="stroke:#000000;" x="166.143062" xlink:href="#m1e1a6757bf" y="149.1945"/>
      </g>
     </g>
     <g id="text_2">
      <text style="font-family:DejaVu Sans;font-size:8.8px;font-style:normal;font-weight:normal;text-anchor:middle;" transform="rotate(-0, 166.143062, 164.181125)" x="166.143062" y="164.181125">−1.0</text>
     </g>
    </g>
    <g id="xtick_3">
     <g id="line2d_3">
      <g>
       <use style="stroke:#000000;" x="193.269945" xlink:href="#m1e1a6757bf" y="149.1945"/>
      </g>
     </g>
     <g id="text_3">
      <text style="font-family:DejaVu Sans;font-size:8.8px;font-style:normal;font-weight:normal;text-anchor:middle;" transform="rotate(-0, 193.269945, 164.181125)" x="193.269945" y="164.181125">−0.5</text>
     </g>
    </g>
    <g id="text_4">
     <text style="font-family:DejaVu Sans;font-size:9.6px;font-style:normal;font-weight:normal;text-anchor:middle;" transform="rotate(-0, 168.85575, 177.30575)" x="168.85575" y="177.30575">                                                Time Point Relative to Choice (Seconds)</text>
    </g>
   </g>
   <g id="matplotlib.axis_2">
    <g id="ytick_1">
     <g id="line2d_4">
      <defs>
       <path d="M 0 0 
L -4.8 0 
" id="m38ef8a531f" style="stroke:#000000;"/>
      </defs>
      <g>
       <use style="stroke:#000000;" x="118.128477" xlink:href="#m38ef8a531f" y="128.960569"/>
      </g>
     </g>
     <g id="text_5">
      <text style="font-family:DejaVu Sans;font-size:8.8px;font-style:normal;font-weight:normal;text-anchor:end;" transform="rotate(-0, 109.828477, 132.303882)" x="109.828477" y="132.303882">0.0</text>
     </g>
    </g>
    <g id="ytick_2">
     <g id="line2d_5">
      <g>
       <use style="stroke:#000000;" x="118.128477" xlink:href="#m38ef8a531f" y="102.183503"/>
      </g>
     </g>
     <g id="text_6">
      <text style="font-family:DejaVu Sans;font-size:8.8px;font-style:normal;font-weight:normal;text-anchor:end;" transform="rotate(-0, 109.828477, 105.526816)" x="109.828477" y="105.526816">0.1</text>
     </g>
    </g>
    <g id="ytick_3">
     <g id="line2d_6">
      <g>
       <use style="stroke:#000000;" x="118.128477" xlink:href="#m38ef8a531f" y="75.406438"/>
      </g>
     </g>
     <g id="text_7">
      <text style="font-family:DejaVu Sans;font-size:8.8px;font-style:normal;font-weight:normal;text-anchor:end;" transform="rotate(-0, 109.828477, 78.74975)" x="109.828477" y="78.74975">0.2</text>
     </g>
    </g>
    <g id="ytick_4">
     <g id="line2d_7">
      <g>
       <use style="stroke:#000000;" x="118.128477" xlink:href="#m38ef8a531f" y="48.629372"/>
      </g>
     </g>
     <g id="text_8">
      <text style="font-family:DejaVu Sans;font-size:8.8px;font-style:normal;font-weight:normal;text-anchor:end;" transform="rotate(-0, 109.828477, 51.972685)" x="109.828477" y="51.972685">0.3</text>
     </g>
    </g>
    <g id="ytick_5">
     <g id="line2d_8">
      <g>
       <use style="stroke:#000000;" x="118.128477" xlink:href="#m38ef8a531f" y="21.852306"/>
      </g>
     </g>
     <g id="text_9">
      <text style="font-family:DejaVu Sans;font-size:8.8px;font-style:normal;font-weight:normal;text-anchor:end;" transform="rotate(-0, 109.828477, 25.195619)" x="109.828477" y="25.195619">0.4</text>
     </g>
    </g>
    <g id="text_10">
     <text style="font-family:DejaVu Sans;font-size:9.6px;font-style:normal;font-weight:normal;" transform="translate(79.087327 154.4295)rotate(-90)">Simulated Test Data Accuracy </text>
     <text style="font-family:DejaVu Sans;font-size:9.6px;font-style:normal;font-weight:normal;" transform="translate(89.837227 160.90575)rotate(-90)"> (Pearson Correlation Coefficient)</text>
    </g>
   </g>
   <g id="LineCollection_1">
    <path clip-path="url(#p326add24f0)" d="M 122.740048 118.783741 
L 122.740048 115.838713 
" style="fill:none;stroke:#1f77b4;stroke-width:1.2;"/>
    <path clip-path="url(#p326add24f0)" d="M 128.165424 117.813118 
L 128.165424 115.153222 
" style="fill:none;stroke:#1f77b4;stroke-width:1.2;"/>
    <path clip-path="url(#p326add24f0)" d="M 133.590801 118.47794 
L 133.590801 115.776412 
" style="fill:none;stroke:#1f77b4;stroke-width:1.2;"/>
    <path clip-path="url(#p326add24f0)" d="M 139.016178 117.834012 
L 139.016178 115.175029 
" style="fill:none;stroke:#1f77b4;stroke-width:1.2;"/>
    <path clip-path="url(#p326add24f0)" d="M 144.441555 118.513801 
L 144.441555 116.189037 
" style="fill:none;stroke:#1f77b4;stroke-width:1.2;"/>
    <path clip-path="url(#p326add24f0)" d="M 149.866931 119.888291 
L 149.866931 117.584385 
" style="fill:none;stroke:#1f77b4;stroke-width:1.2;"/>
    <path clip-path="url(#p326add24f0)" d="M 155.292308 121.448936 
L 155.292308 119.133089 
" style="fill:none;stroke:#1f77b4;stroke-width:1.2;"/>
    <path clip-path="url(#p326add24f0)" d="M 160.717685 122.871862 
L 160.717685 120.522149 
" style="fill:none;stroke:#1f77b4;stroke-width:1.2;"/>
    <path clip-path="url(#p326add24f0)" d="M 166.143062 122.710983 
L 166.143062 120.615035 
" style="fill:none;stroke:#1f77b4;stroke-width:1.2;"/>
    <path clip-path="url(#p326add24f0)" d="M 171.568438 123.192214 
L 171.568438 120.894693 
" style="fill:none;stroke:#1f77b4;stroke-width:1.2;"/>
    <path clip-path="url(#p326add24f0)" d="M 176.993815 122.657254 
L 176.993815 120.409704 
" style="fill:none;stroke:#1f77b4;stroke-width:1.2;"/>
    <path clip-path="url(#p326add24f0)" d="M 182.419192 118.25325 
L 182.419192 116.102096 
" style="fill:none;stroke:#1f77b4;stroke-width:1.2;"/>
    <path clip-path="url(#p326add24f0)" d="M 187.844569 110.431359 
L 187.844569 108.607505 
" style="fill:none;stroke:#1f77b4;stroke-width:1.2;"/>
    <path clip-path="url(#p326add24f0)" d="M 193.269945 99.271648 
L 193.269945 97.21671 
" style="fill:none;stroke:#1f77b4;stroke-width:1.2;"/>
    <path clip-path="url(#p326add24f0)" d="M 198.695322 83.844319 
L 198.695322 81.855727 
" style="fill:none;stroke:#1f77b4;stroke-width:1.2;"/>
    <path clip-path="url(#p326add24f0)" d="M 204.120699 65.668492 
L 204.120699 63.779012 
" style="fill:none;stroke:#1f77b4;stroke-width:1.2;"/>
    <path clip-path="url(#p326add24f0)" d="M 209.546076 50.577892 
L 209.546076 48.680915 
" style="fill:none;stroke:#1f77b4;stroke-width:1.2;"/>
    <path clip-path="url(#p326add24f0)" d="M 214.971452 45.848853 
L 214.971452 43.990139 
" style="fill:none;stroke:#1f77b4;stroke-width:1.2;"/>
   </g>
   <g id="LineCollection_2">
    <path clip-path="url(#p326add24f0)" d="M 122.740048 67.210539 
L 122.740048 64.284433 
" style="fill:none;stroke:#aec7e8;stroke-width:1.2;"/>
    <path clip-path="url(#p326add24f0)" d="M 128.165424 67.64663 
L 128.165424 64.746435 
" style="fill:none;stroke:#aec7e8;stroke-width:1.2;"/>
    <path clip-path="url(#p326add24f0)" d="M 133.590801 67.663503 
L 133.590801 64.675149 
" style="fill:none;stroke:#aec7e8;stroke-width:1.2;"/>
    <path clip-path="url(#p326add24f0)" d="M 139.016178 67.161768 
L 139.016178 64.358895 
" style="fill:none;stroke:#aec7e8;stroke-width:1.2;"/>
    <path clip-path="url(#p326add24f0)" d="M 144.441555 66.92503 
L 144.441555 64.250864 
" style="fill:none;stroke:#aec7e8;stroke-width:1.2;"/>
    <path clip-path="url(#p326add24f0)" d="M 149.866931 66.789614 
L 149.866931 64.272546 
" style="fill:none;stroke:#aec7e8;stroke-width:1.2;"/>
    <path clip-path="url(#p326add24f0)" d="M 155.292308 66.846274 
L 155.292308 64.387416 
" style="fill:none;stroke:#aec7e8;stroke-width:1.2;"/>
    <path clip-path="url(#p326add24f0)" d="M 160.717685 66.719958 
L 160.717685 64.439495 
" style="fill:none;stroke:#aec7e8;stroke-width:1.2;"/>
    <path clip-path="url(#p326add24f0)" d="M 166.143062 66.693905 
L 166.143062 64.581881 
" style="fill:none;stroke:#aec7e8;stroke-width:1.2;"/>
    <path clip-path="url(#p326add24f0)" d="M 171.568438 66.832814 
L 171.568438 64.737876 
" style="fill:none;stroke:#aec7e8;stroke-width:1.2;"/>
    <path clip-path="url(#p326add24f0)" d="M 176.993815 66.419768 
L 176.993815 64.36146 
" style="fill:none;stroke:#aec7e8;stroke-width:1.2;"/>
    <path clip-path="url(#p326add24f0)" d="M 182.419192 65.712231 
L 182.419192 63.726836 
" style="fill:none;stroke:#aec7e8;stroke-width:1.2;"/>
    <path clip-path="url(#p326add24f0)" d="M 187.844569 63.690303 
L 187.844569 61.663271 
" style="fill:none;stroke:#aec7e8;stroke-width:1.2;"/>
    <path clip-path="url(#p326add24f0)" d="M 193.269945 60.599796 
L 193.269945 58.622103 
" style="fill:none;stroke:#aec7e8;stroke-width:1.2;"/>
    <path clip-path="url(#p326add24f0)" d="M 198.695322 55.167878 
L 198.695322 53.244111 
" style="fill:none;stroke:#aec7e8;stroke-width:1.2;"/>
    <path clip-path="url(#p326add24f0)" d="M 204.120699 47.238074 
L 204.120699 45.449673 
" style="fill:none;stroke:#aec7e8;stroke-width:1.2;"/>
    <path clip-path="url(#p326add24f0)" d="M 209.546076 37.519598 
L 209.546076 35.819806 
" style="fill:none;stroke:#aec7e8;stroke-width:1.2;"/>
    <path clip-path="url(#p326add24f0)" d="M 214.971452 29.446415 
L 214.971452 27.783179 
" style="fill:none;stroke:#aec7e8;stroke-width:1.2;"/>
   </g>
   <g id="LineCollection_3">
    <path clip-path="url(#p326add24f0)" d="M 122.740048 75.300928 
L 122.740048 72.221635 
" style="fill:none;stroke:#ff7f0e;stroke-width:1.2;"/>
    <path clip-path="url(#p326add24f0)" d="M 128.165424 75.263029 
L 128.165424 72.180692 
" style="fill:none;stroke:#ff7f0e;stroke-width:1.2;"/>
    <path clip-path="url(#p326add24f0)" d="M 133.590801 75.108615 
L 133.590801 71.983574 
" style="fill:none;stroke:#ff7f0e;stroke-width:1.2;"/>
    <path clip-path="url(#p326add24f0)" d="M 139.016178 74.779761 
L 139.016178 72.021237 
" style="fill:none;stroke:#ff7f0e;stroke-width:1.2;"/>
    <path clip-path="url(#p326add24f0)" d="M 144.441555 74.676232 
L 144.441555 71.916294 
" style="fill:none;stroke:#ff7f0e;stroke-width:1.2;"/>
    <path clip-path="url(#p326add24f0)" d="M 149.866931 74.44958 
L 149.866931 71.781229 
" style="fill:none;stroke:#ff7f0e;stroke-width:1.2;"/>
    <path clip-path="url(#p326add24f0)" d="M 155.292308 74.632558 
L 155.292308 72.033483 
" style="fill:none;stroke:#ff7f0e;stroke-width:1.2;"/>
    <path clip-path="url(#p326add24f0)" d="M 160.717685 74.345446 
L 160.717685 71.940099 
" style="fill:none;stroke:#ff7f0e;stroke-width:1.2;"/>
    <path clip-path="url(#p326add24f0)" d="M 166.143062 74.581583 
L 166.143062 72.363566 
" style="fill:none;stroke:#ff7f0e;stroke-width:1.2;"/>
    <path clip-path="url(#p326add24f0)" d="M 171.568438 75.133431 
L 171.568438 73.050418 
" style="fill:none;stroke:#ff7f0e;stroke-width:1.2;"/>
    <path clip-path="url(#p326add24f0)" d="M 176.993815 75.706695 
L 176.993815 73.610703 
" style="fill:none;stroke:#ff7f0e;stroke-width:1.2;"/>
    <path clip-path="url(#p326add24f0)" d="M 182.419192 75.533474 
L 182.419192 73.362025 
" style="fill:none;stroke:#ff7f0e;stroke-width:1.2;"/>
    <path clip-path="url(#p326add24f0)" d="M 187.844569 73.846043 
L 187.844569 71.705707 
" style="fill:none;stroke:#ff7f0e;stroke-width:1.2;"/>
    <path clip-path="url(#p326add24f0)" d="M 193.269945 71.118469 
L 193.269945 69.01569 
" style="fill:none;stroke:#ff7f0e;stroke-width:1.2;"/>
    <path clip-path="url(#p326add24f0)" d="M 198.695322 65.210802 
L 198.695322 63.21021 
" style="fill:none;stroke:#ff7f0e;stroke-width:1.2;"/>
    <path clip-path="url(#p326add24f0)" d="M 204.120699 56.754342 
L 204.120699 54.951578 
" style="fill:none;stroke:#ff7f0e;stroke-width:1.2;"/>
    <path clip-path="url(#p326add24f0)" d="M 209.546076 47.014206 
L 209.546076 45.33541 
" style="fill:none;stroke:#ff7f0e;stroke-width:1.2;"/>
    <path clip-path="url(#p326add24f0)" d="M 214.971452 39.0811 
L 214.971452 37.417798 
" style="fill:none;stroke:#ff7f0e;stroke-width:1.2;"/>
   </g>
   <g id="LineCollection_4">
    <path clip-path="url(#p326add24f0)" d="M 122.740048 67.53911 
L 122.740048 64.712138 
" style="fill:none;stroke:#ffbb78;stroke-width:1.2;"/>
    <path clip-path="url(#p326add24f0)" d="M 128.165424 67.697664 
L 128.165424 64.823202 
" style="fill:none;stroke:#ffbb78;stroke-width:1.2;"/>
    <path clip-path="url(#p326add24f0)" d="M 133.590801 67.843796 
L 133.590801 64.815281 
" style="fill:none;stroke:#ffbb78;stroke-width:1.2;"/>
    <path clip-path="url(#p326add24f0)" d="M 139.016178 67.363221 
L 139.016178 64.485075 
" style="fill:none;stroke:#ffbb78;stroke-width:1.2;"/>
    <path clip-path="url(#p326add24f0)" d="M 144.441555 67.13111 
L 144.441555 64.43734 
" style="fill:none;stroke:#ffbb78;stroke-width:1.2;"/>
    <path clip-path="url(#p326add24f0)" d="M 149.866931 67.401582 
L 149.866931 64.878512 
" style="fill:none;stroke:#ffbb78;stroke-width:1.2;"/>
    <path clip-path="url(#p326add24f0)" d="M 155.292308 67.553513 
L 155.292308 65.161129 
" style="fill:none;stroke:#ffbb78;stroke-width:1.2;"/>
    <path clip-path="url(#p326add24f0)" d="M 160.717685 67.462592 
L 160.717685 65.269992 
" style="fill:none;stroke:#ffbb78;stroke-width:1.2;"/>
    <path clip-path="url(#p326add24f0)" d="M 166.143062 67.143115 
L 166.143062 65.047383 
" style="fill:none;stroke:#ffbb78;stroke-width:1.2;"/>
    <path clip-path="url(#p326add24f0)" d="M 171.568438 67.078264 
L 171.568438 64.972878 
" style="fill:none;stroke:#ffbb78;stroke-width:1.2;"/>
    <path clip-path="url(#p326add24f0)" d="M 176.993815 66.170313 
L 176.993815 64.033712 
" style="fill:none;stroke:#ffbb78;stroke-width:1.2;"/>
    <path clip-path="url(#p326add24f0)" d="M 182.419192 64.000457 
L 182.419192 61.965709 
" style="fill:none;stroke:#ffbb78;stroke-width:1.2;"/>
    <path clip-path="url(#p326add24f0)" d="M 187.844569 60.027034 
L 187.844569 58.034018 
" style="fill:none;stroke:#ffbb78;stroke-width:1.2;"/>
    <path clip-path="url(#p326add24f0)" d="M 193.269945 54.740059 
L 193.269945 52.770087 
" style="fill:none;stroke:#ffbb78;stroke-width:1.2;"/>
    <path clip-path="url(#p326add24f0)" d="M 198.695322 47.179293 
L 198.695322 45.322716 
" style="fill:none;stroke:#ffbb78;stroke-width:1.2;"/>
    <path clip-path="url(#p326add24f0)" d="M 204.120699 37.304068 
L 204.120699 35.583877 
" style="fill:none;stroke:#ffbb78;stroke-width:1.2;"/>
    <path clip-path="url(#p326add24f0)" d="M 209.546076 27.247478 
L 209.546076 25.57981 
" style="fill:none;stroke:#ffbb78;stroke-width:1.2;"/>
    <path clip-path="url(#p326add24f0)" d="M 214.971452 21.07021 
L 214.971452 19.471773 
" style="fill:none;stroke:#ffbb78;stroke-width:1.2;"/>
   </g>
   <g id="line2d_9">
    <path clip-path="url(#p326add24f0)" d="M 122.740048 117.311227 
L 128.165424 116.48317 
L 133.590801 117.127176 
L 139.016178 116.504521 
L 144.441555 117.351419 
L 149.866931 118.736338 
L 155.292308 120.291013 
L 160.717685 121.697006 
L 166.143062 121.663009 
L 171.568438 122.043454 
L 176.993815 121.533479 
L 182.419192 117.177673 
L 187.844569 109.519432 
L 193.269945 98.244179 
L 198.695322 82.850023 
L 204.120699 64.723752 
L 209.546076 49.629403 
L 214.971452 44.919496 
" style="fill:none;stroke:#1f77b4;stroke-linecap:square;stroke-width:1.2;"/>
   </g>
   <g id="line2d_10">
    <path clip-path="url(#p326add24f0)" d="M 122.740048 65.747486 
L 128.165424 66.196532 
L 133.590801 66.169326 
L 139.016178 65.760331 
L 144.441555 65.587947 
L 149.866931 65.53108 
L 155.292308 65.616845 
L 160.717685 65.579727 
L 166.143062 65.637893 
L 171.568438 65.785345 
L 176.993815 65.390614 
L 182.419192 64.719534 
L 187.844569 62.676787 
L 193.269945 59.610949 
L 198.695322 54.205995 
L 204.120699 46.343874 
L 209.546076 36.669702 
L 214.971452 28.614797 
" style="fill:none;stroke:#aec7e8;stroke-linecap:square;stroke-width:1.2;"/>
   </g>
   <g id="line2d_11">
    <path clip-path="url(#p326add24f0)" d="M 122.740048 73.761281 
L 128.165424 73.721861 
L 133.590801 73.546095 
L 139.016178 73.400499 
L 144.441555 73.296263 
L 149.866931 73.115404 
L 155.292308 73.333021 
L 160.717685 73.142773 
L 166.143062 73.472574 
L 171.568438 74.091925 
L 176.993815 74.658699 
L 182.419192 74.44775 
L 187.844569 72.775875 
L 193.269945 70.06708 
L 198.695322 64.210506 
L 204.120699 55.85296 
L 209.546076 46.174808 
L 214.971452 38.249449 
" style="fill:none;stroke:#ff7f0e;stroke-linecap:square;stroke-width:1.2;"/>
   </g>
   <g id="line2d_12">
    <path clip-path="url(#p326add24f0)" d="M 122.740048 66.125624 
L 128.165424 66.260433 
L 133.590801 66.329539 
L 139.016178 65.924148 
L 144.441555 65.784225 
L 149.866931 66.140047 
L 155.292308 66.357321 
L 160.717685 66.366292 
L 166.143062 66.095249 
L 171.568438 66.025571 
L 176.993815 65.102013 
L 182.419192 62.983083 
L 187.844569 59.030526 
L 193.269945 53.755073 
L 198.695322 46.251004 
L 204.120699 36.443972 
L 209.546076 26.413644 
L 214.971452 20.270991 
" style="fill:none;stroke:#ffbb78;stroke-linecap:square;stroke-width:1.2;"/>
   </g>
   <g id="patch_3">
    <path d="M 118.128477 149.1945 
L 118.128477 13.2945 
" style="fill:none;stroke:#000000;stroke-linecap:square;stroke-linejoin:miter;"/>
   </g>
   <g id="patch_4">
    <path d="M 219.583023 149.1945 
L 219.583023 13.2945 
" style="fill:none;stroke:#000000;stroke-linecap:square;stroke-linejoin:miter;"/>
   </g>
   <g id="patch_5">
    <path d="M 118.128477 149.1945 
L 219.583023 149.1945 
" style="fill:none;stroke:#000000;stroke-linecap:square;stroke-linejoin:miter;"/>
   </g>
   <g id="patch_6">
    <path d="M 118.128477 13.2945 
L 219.583023 13.2945 
" style="fill:none;stroke:#000000;stroke-linecap:square;stroke-linejoin:miter;"/>
   </g>
   <g id="text_11">
    <text style="font-family:DejaVu Sans;font-size:9.6px;font-style:normal;font-weight:normal;text-anchor:middle;" transform="rotate(-0, 168.85575, 7.2945)" x="168.85575" y="7.2945">Simulated Data</text>
   </g>
  </g>
  <g id="axes_2">
   <g id="patch_7">
    <path d="M 239.873932 149.1945 
L 341.328477 149.1945 
L 341.328477 13.2945 
L 239.873932 13.2945 
z
" style="fill:none;"/>
   </g>
   <g id="matplotlib.axis_3">
    <g id="xtick_4">
     <g id="line2d_13">
      <g>
       <use style="stroke:#000000;" x="260.761632" xlink:href="#m1e1a6757bf" y="149.1945"/>
      </g>
     </g>
     <g id="text_12">
      <text style="font-family:DejaVu Sans;font-size:8.8px;font-style:normal;font-weight:normal;text-anchor:middle;" transform="rotate(-0, 260.761632, 164.181125)" x="260.761632" y="164.181125">−1.5</text>
     </g>
    </g>
    <g id="xtick_5">
     <g id="line2d_14">
      <g>
       <use style="stroke:#000000;" x="287.888516" xlink:href="#m1e1a6757bf" y="149.1945"/>
      </g>
     </g>
     <g id="text_13">
      <text style="font-family:DejaVu Sans;font-size:8.8px;font-style:normal;font-weight:normal;text-anchor:middle;" transform="rotate(-0, 287.888516, 164.181125)" x="287.888516" y="164.181125">−1.0</text>
     </g>
    </g>
    <g id="xtick_6">
     <g id="line2d_15">
      <g>
       <use style="stroke:#000000;" x="315.0154" xlink:href="#m1e1a6757bf" y="149.1945"/>
      </g>
     </g>
     <g id="text_14">
      <text style="font-family:DejaVu Sans;font-size:8.8px;font-style:normal;font-weight:normal;text-anchor:middle;" transform="rotate(-0, 315.0154, 164.181125)" x="315.0154" y="164.181125">−0.5</text>
     </g>
    </g>
   </g>
   <g id="matplotlib.axis_4">
    <g id="ytick_6">
     <g id="line2d_16">
      <g>
       <use style="stroke:#000000;" x="239.873932" xlink:href="#m38ef8a531f" y="128.960569"/>
      </g>
     </g>
    </g>
    <g id="ytick_7">
     <g id="line2d_17">
      <g>
       <use style="stroke:#000000;" x="239.873932" xlink:href="#m38ef8a531f" y="102.183503"/>
      </g>
     </g>
    </g>
    <g id="ytick_8">
     <g id="line2d_18">
      <g>
       <use style="stroke:#000000;" x="239.873932" xlink:href="#m38ef8a531f" y="75.406438"/>
      </g>
     </g>
    </g>
    <g id="ytick_9">
     <g id="line2d_19">
      <g>
       <use style="stroke:#000000;" x="239.873932" xlink:href="#m38ef8a531f" y="48.629372"/>
      </g>
     </g>
    </g>
    <g id="ytick_10">
     <g id="line2d_20">
      <g>
       <use style="stroke:#000000;" x="239.873932" xlink:href="#m38ef8a531f" y="21.852306"/>
      </g>
     </g>
    </g>
   </g>
   <g id="LineCollection_5">
    <path clip-path="url(#pa8654dad59)" d="M 244.485502 126.448346 
L 244.485502 125.260938 
" style="fill:none;stroke:#1f77b4;stroke-width:1.2;"/>
    <path clip-path="url(#pa8654dad59)" d="M 249.910879 128.544278 
L 249.910879 127.410039 
" style="fill:none;stroke:#1f77b4;stroke-width:1.2;"/>
    <path clip-path="url(#pa8654dad59)" d="M 255.336256 132.526979 
L 255.336256 131.312889 
" style="fill:none;stroke:#1f77b4;stroke-width:1.2;"/>
    <path clip-path="url(#pa8654dad59)" d="M 260.761632 129.442199 
L 260.761632 128.33918 
" style="fill:none;stroke:#1f77b4;stroke-width:1.2;"/>
    <path clip-path="url(#pa8654dad59)" d="M 266.187009 135.438459 
L 266.187009 134.322474 
" style="fill:none;stroke:#1f77b4;stroke-width:1.2;"/>
    <path clip-path="url(#pa8654dad59)" d="M 271.612386 131.336201 
L 271.612386 130.285415 
" style="fill:none;stroke:#1f77b4;stroke-width:1.2;"/>
    <path clip-path="url(#pa8654dad59)" d="M 277.037763 136.372788 
L 277.037763 135.419431 
" style="fill:none;stroke:#1f77b4;stroke-width:1.2;"/>
    <path clip-path="url(#pa8654dad59)" d="M 282.463139 143.017227 
L 282.463139 142.104712 
" style="fill:none;stroke:#1f77b4;stroke-width:1.2;"/>
    <path clip-path="url(#pa8654dad59)" d="M 287.888516 127.611138 
L 287.888516 126.711925 
" style="fill:none;stroke:#1f77b4;stroke-width:1.2;"/>
    <path clip-path="url(#pa8654dad59)" d="M 293.313893 111.438123 
L 293.313893 110.461021 
" style="fill:none;stroke:#1f77b4;stroke-width:1.2;"/>
    <path clip-path="url(#pa8654dad59)" d="M 298.73927 103.238187 
L 298.73927 102.292157 
" style="fill:none;stroke:#1f77b4;stroke-width:1.2;"/>
    <path clip-path="url(#pa8654dad59)" d="M 304.164646 95.441769 
L 304.164646 94.390187 
" style="fill:none;stroke:#1f77b4;stroke-width:1.2;"/>
    <path clip-path="url(#pa8654dad59)" d="M 309.590023 94.788826 
L 309.590023 93.827248 
" style="fill:none;stroke:#1f77b4;stroke-width:1.2;"/>
    <path clip-path="url(#pa8654dad59)" d="M 315.0154 86.502638 
L 315.0154 85.450292 
" style="fill:none;stroke:#1f77b4;stroke-width:1.2;"/>
    <path clip-path="url(#pa8654dad59)" d="M 320.440777 78.816375 
L 320.440777 77.654925 
" style="fill:none;stroke:#1f77b4;stroke-width:1.2;"/>
    <path clip-path="url(#pa8654dad59)" d="M 325.866154 75.253434 
L 325.866154 74.115341 
" style="fill:none;stroke:#1f77b4;stroke-width:1.2;"/>
    <path clip-path="url(#pa8654dad59)" d="M 331.29153 80.260668 
L 331.29153 79.205897 
" style="fill:none;stroke:#1f77b4;stroke-width:1.2;"/>
    <path clip-path="url(#pa8654dad59)" d="M 336.716907 70.433708 
L 336.716907 69.33535 
" style="fill:none;stroke:#1f77b4;stroke-width:1.2;"/>
   </g>
   <g id="LineCollection_6">
    <path clip-path="url(#pa8654dad59)" d="M 244.485502 111.285802 
L 244.485502 110.09131 
" style="fill:none;stroke:#aec7e8;stroke-width:1.2;"/>
    <path clip-path="url(#pa8654dad59)" d="M 249.910879 114.096777 
L 249.910879 112.889678 
" style="fill:none;stroke:#aec7e8;stroke-width:1.2;"/>
    <path clip-path="url(#pa8654dad59)" d="M 255.336256 115.548658 
L 255.336256 114.374824 
" style="fill:none;stroke:#aec7e8;stroke-width:1.2;"/>
    <path clip-path="url(#pa8654dad59)" d="M 260.761632 116.135292 
L 260.761632 114.981338 
" style="fill:none;stroke:#aec7e8;stroke-width:1.2;"/>
    <path clip-path="url(#pa8654dad59)" d="M 266.187009 119.603696 
L 266.187009 118.474272 
" style="fill:none;stroke:#aec7e8;stroke-width:1.2;"/>
    <path clip-path="url(#pa8654dad59)" d="M 271.612386 119.158195 
L 271.612386 118.095003 
" style="fill:none;stroke:#aec7e8;stroke-width:1.2;"/>
    <path clip-path="url(#pa8654dad59)" d="M 277.037763 117.148507 
L 277.037763 116.10235 
" style="fill:none;stroke:#aec7e8;stroke-width:1.2;"/>
    <path clip-path="url(#pa8654dad59)" d="M 282.463139 121.062854 
L 282.463139 120.083056 
" style="fill:none;stroke:#aec7e8;stroke-width:1.2;"/>
    <path clip-path="url(#pa8654dad59)" d="M 287.888516 123.63005 
L 287.888516 122.728187 
" style="fill:none;stroke:#aec7e8;stroke-width:1.2;"/>
    <path clip-path="url(#pa8654dad59)" d="M 293.313893 120.157232 
L 293.313893 119.318033 
" style="fill:none;stroke:#aec7e8;stroke-width:1.2;"/>
    <path clip-path="url(#pa8654dad59)" d="M 298.73927 115.491618 
L 298.73927 114.685023 
" style="fill:none;stroke:#aec7e8;stroke-width:1.2;"/>
    <path clip-path="url(#pa8654dad59)" d="M 304.164646 112.257549 
L 304.164646 111.465416 
" style="fill:none;stroke:#aec7e8;stroke-width:1.2;"/>
    <path clip-path="url(#pa8654dad59)" d="M 309.590023 108.009619 
L 309.590023 107.215824 
" style="fill:none;stroke:#aec7e8;stroke-width:1.2;"/>
    <path clip-path="url(#pa8654dad59)" d="M 315.0154 103.675452 
L 315.0154 102.910916 
" style="fill:none;stroke:#aec7e8;stroke-width:1.2;"/>
    <path clip-path="url(#pa8654dad59)" d="M 320.440777 93.786014 
L 320.440777 92.969627 
" style="fill:none;stroke:#aec7e8;stroke-width:1.2;"/>
    <path clip-path="url(#pa8654dad59)" d="M 325.866154 87.366115 
L 325.866154 86.559874 
" style="fill:none;stroke:#aec7e8;stroke-width:1.2;"/>
    <path clip-path="url(#pa8654dad59)" d="M 331.29153 81.600746 
L 331.29153 80.757629 
" style="fill:none;stroke:#aec7e8;stroke-width:1.2;"/>
    <path clip-path="url(#pa8654dad59)" d="M 336.716907 75.54893 
L 336.716907 74.668026 
" style="fill:none;stroke:#aec7e8;stroke-width:1.2;"/>
   </g>
   <g id="LineCollection_7">
    <path clip-path="url(#pa8654dad59)" d="M 244.485502 114.662461 
L 244.485502 113.316851 
" style="fill:none;stroke:#ff7f0e;stroke-width:1.2;"/>
    <path clip-path="url(#pa8654dad59)" d="M 249.910879 116.107044 
L 249.910879 114.74029 
" style="fill:none;stroke:#ff7f0e;stroke-width:1.2;"/>
    <path clip-path="url(#pa8654dad59)" d="M 255.336256 118.742703 
L 255.336256 117.392885 
" style="fill:none;stroke:#ff7f0e;stroke-width:1.2;"/>
    <path clip-path="url(#pa8654dad59)" d="M 260.761632 119.824643 
L 260.761632 118.546296 
" style="fill:none;stroke:#ff7f0e;stroke-width:1.2;"/>
    <path clip-path="url(#pa8654dad59)" d="M 266.187009 119.361742 
L 266.187009 118.173382 
" style="fill:none;stroke:#ff7f0e;stroke-width:1.2;"/>
    <path clip-path="url(#pa8654dad59)" d="M 271.612386 116.504746 
L 271.612386 115.330606 
" style="fill:none;stroke:#ff7f0e;stroke-width:1.2;"/>
    <path clip-path="url(#pa8654dad59)" d="M 277.037763 118.588893 
L 277.037763 117.400364 
" style="fill:none;stroke:#ff7f0e;stroke-width:1.2;"/>
    <path clip-path="url(#pa8654dad59)" d="M 282.463139 122.847806 
L 282.463139 121.672671 
" style="fill:none;stroke:#ff7f0e;stroke-width:1.2;"/>
    <path clip-path="url(#pa8654dad59)" d="M 287.888516 126.300863 
L 287.888516 125.2742 
" style="fill:none;stroke:#ff7f0e;stroke-width:1.2;"/>
    <path clip-path="url(#pa8654dad59)" d="M 293.313893 126.63895 
L 293.313893 125.753003 
" style="fill:none;stroke:#ff7f0e;stroke-width:1.2;"/>
    <path clip-path="url(#pa8654dad59)" d="M 298.73927 117.451526 
L 298.73927 116.591478 
" style="fill:none;stroke:#ff7f0e;stroke-width:1.2;"/>
    <path clip-path="url(#pa8654dad59)" d="M 304.164646 112.637135 
L 304.164646 111.736564 
" style="fill:none;stroke:#ff7f0e;stroke-width:1.2;"/>
    <path clip-path="url(#pa8654dad59)" d="M 309.590023 106.615177 
L 309.590023 105.74685 
" style="fill:none;stroke:#ff7f0e;stroke-width:1.2;"/>
    <path clip-path="url(#pa8654dad59)" d="M 315.0154 92.842396 
L 315.0154 91.961154 
" style="fill:none;stroke:#ff7f0e;stroke-width:1.2;"/>
    <path clip-path="url(#pa8654dad59)" d="M 320.440777 83.285248 
L 320.440777 82.356972 
" style="fill:none;stroke:#ff7f0e;stroke-width:1.2;"/>
    <path clip-path="url(#pa8654dad59)" d="M 325.866154 72.660813 
L 325.866154 71.692739 
" style="fill:none;stroke:#ff7f0e;stroke-width:1.2;"/>
    <path clip-path="url(#pa8654dad59)" d="M 331.29153 68.276543 
L 331.29153 67.309126 
" style="fill:none;stroke:#ff7f0e;stroke-width:1.2;"/>
    <path clip-path="url(#pa8654dad59)" d="M 336.716907 62.863737 
L 336.716907 61.888023 
" style="fill:none;stroke:#ff7f0e;stroke-width:1.2;"/>
   </g>
   <g id="LineCollection_8">
    <path clip-path="url(#pa8654dad59)" d="M 244.485502 114.969043 
L 244.485502 113.502794 
" style="fill:none;stroke:#ffbb78;stroke-width:1.2;"/>
    <path clip-path="url(#pa8654dad59)" d="M 249.910879 116.330669 
L 249.910879 114.899133 
" style="fill:none;stroke:#ffbb78;stroke-width:1.2;"/>
    <path clip-path="url(#pa8654dad59)" d="M 255.336256 119.698886 
L 255.336256 118.357947 
" style="fill:none;stroke:#ffbb78;stroke-width:1.2;"/>
    <path clip-path="url(#pa8654dad59)" d="M 260.761632 119.990961 
L 260.761632 118.788264 
" style="fill:none;stroke:#ffbb78;stroke-width:1.2;"/>
    <path clip-path="url(#pa8654dad59)" d="M 266.187009 122.633685 
L 266.187009 121.421344 
" style="fill:none;stroke:#ffbb78;stroke-width:1.2;"/>
    <path clip-path="url(#pa8654dad59)" d="M 271.612386 120.999383 
L 271.612386 119.830475 
" style="fill:none;stroke:#ffbb78;stroke-width:1.2;"/>
    <path clip-path="url(#pa8654dad59)" d="M 277.037763 121.119774 
L 277.037763 120.057264 
" style="fill:none;stroke:#ffbb78;stroke-width:1.2;"/>
    <path clip-path="url(#pa8654dad59)" d="M 282.463139 126.052355 
L 282.463139 125.026339 
" style="fill:none;stroke:#ffbb78;stroke-width:1.2;"/>
    <path clip-path="url(#pa8654dad59)" d="M 287.888516 121.362753 
L 287.888516 120.380161 
" style="fill:none;stroke:#ffbb78;stroke-width:1.2;"/>
    <path clip-path="url(#pa8654dad59)" d="M 293.313893 113.329828 
L 293.313893 112.399254 
" style="fill:none;stroke:#ffbb78;stroke-width:1.2;"/>
    <path clip-path="url(#pa8654dad59)" d="M 298.73927 105.78675 
L 298.73927 104.759922 
" style="fill:none;stroke:#ffbb78;stroke-width:1.2;"/>
    <path clip-path="url(#pa8654dad59)" d="M 304.164646 100.105201 
L 304.164646 98.954229 
" style="fill:none;stroke:#ffbb78;stroke-width:1.2;"/>
    <path clip-path="url(#pa8654dad59)" d="M 309.590023 98.068209 
L 309.590023 96.940347 
" style="fill:none;stroke:#ffbb78;stroke-width:1.2;"/>
    <path clip-path="url(#pa8654dad59)" d="M 315.0154 92.558273 
L 315.0154 91.335698 
" style="fill:none;stroke:#ffbb78;stroke-width:1.2;"/>
    <path clip-path="url(#pa8654dad59)" d="M 320.440777 83.689626 
L 320.440777 82.356687 
" style="fill:none;stroke:#ffbb78;stroke-width:1.2;"/>
    <path clip-path="url(#pa8654dad59)" d="M 325.866154 80.175578 
L 325.866154 78.81771 
" style="fill:none;stroke:#ffbb78;stroke-width:1.2;"/>
    <path clip-path="url(#pa8654dad59)" d="M 331.29153 78.246705 
L 331.29153 76.866126 
" style="fill:none;stroke:#ffbb78;stroke-width:1.2;"/>
    <path clip-path="url(#pa8654dad59)" d="M 336.716907 70.635518 
L 336.716907 69.162313 
" style="fill:none;stroke:#ffbb78;stroke-width:1.2;"/>
   </g>
   <g id="line2d_21">
    <path clip-path="url(#pa8654dad59)" d="M 244.485502 125.854642 
L 249.910879 127.977158 
L 255.336256 131.919934 
L 260.761632 128.890689 
L 266.187009 134.880466 
L 271.612386 130.810808 
L 277.037763 135.896109 
L 282.463139 142.56097 
L 287.888516 127.161532 
L 293.313893 110.949572 
L 298.73927 102.765172 
L 304.164646 94.915978 
L 309.590023 94.308037 
L 315.0154 85.976465 
L 320.440777 78.23565 
L 325.866154 74.684387 
L 331.29153 79.733283 
L 336.716907 69.884529 
" style="fill:none;stroke:#1f77b4;stroke-linecap:square;stroke-width:1.2;"/>
   </g>
   <g id="line2d_22">
    <path clip-path="url(#pa8654dad59)" d="M 244.485502 110.688556 
L 249.910879 113.493228 
L 255.336256 114.961741 
L 260.761632 115.558315 
L 266.187009 119.038984 
L 271.612386 118.626599 
L 277.037763 116.625428 
L 282.463139 120.572955 
L 287.888516 123.179118 
L 293.313893 119.737632 
L 298.73927 115.08832 
L 304.164646 111.861483 
L 309.590023 107.612721 
L 315.0154 103.293184 
L 320.440777 93.377821 
L 325.866154 86.962995 
L 331.29153 81.179188 
L 336.716907 75.108478 
" style="fill:none;stroke:#aec7e8;stroke-linecap:square;stroke-width:1.2;"/>
   </g>
   <g id="line2d_23">
    <path clip-path="url(#pa8654dad59)" d="M 244.485502 113.989656 
L 249.910879 115.423667 
L 255.336256 118.067794 
L 260.761632 119.18547 
L 266.187009 118.767562 
L 271.612386 115.917676 
L 277.037763 117.994628 
L 282.463139 122.260238 
L 287.888516 125.787532 
L 293.313893 126.195977 
L 298.73927 117.021502 
L 304.164646 112.186849 
L 309.590023 106.181014 
L 315.0154 92.401775 
L 320.440777 82.82111 
L 325.866154 72.176776 
L 331.29153 67.792835 
L 336.716907 62.37588 
" style="fill:none;stroke:#ff7f0e;stroke-linecap:square;stroke-width:1.2;"/>
   </g>
   <g id="line2d_24">
    <path clip-path="url(#pa8654dad59)" d="M 244.485502 114.235919 
L 249.910879 115.614901 
L 255.336256 119.028417 
L 260.761632 119.389613 
L 266.187009 122.027515 
L 271.612386 120.414929 
L 277.037763 120.588519 
L 282.463139 125.539347 
L 287.888516 120.871457 
L 293.313893 112.864541 
L 298.73927 105.273336 
L 304.164646 99.529715 
L 309.590023 97.504278 
L 315.0154 91.946986 
L 320.440777 83.023156 
L 325.866154 79.496644 
L 331.29153 77.556415 
L 336.716907 69.898916 
" style="fill:none;stroke:#ffbb78;stroke-linecap:square;stroke-width:1.2;"/>
   </g>
   <g id="patch_8">
    <path d="M 239.873932 149.1945 
L 239.873932 13.2945 
" style="fill:none;stroke:#000000;stroke-linecap:square;stroke-linejoin:miter;"/>
   </g>
   <g id="patch_9">
    <path d="M 341.328477 149.1945 
L 341.328477 13.2945 
" style="fill:none;stroke:#000000;stroke-linecap:square;stroke-linejoin:miter;"/>
   </g>
   <g id="patch_10">
    <path d="M 239.873932 149.1945 
L 341.328477 149.1945 
" style="fill:none;stroke:#000000;stroke-linecap:square;stroke-linejoin:miter;"/>
   </g>
   <g id="patch_11">
    <path d="M 239.873932 13.2945 
L 341.328477 13.2945 
" style="fill:none;stroke:#000000;stroke-linecap:square;stroke-linejoin:miter;"/>
   </g>
   <g id="text_15">
    <text style="font-family:DejaVu Sans;font-size:9.6px;font-style:normal;font-weight:normal;text-anchor:middle;" transform="rotate(-0, 290.601205, 7.2945)" x="290.601205" y="7.2945">Human Data</text>
   </g>
   <g id="legend_1">
    <g id="patch_12">
     <path d="M 348.161205 115.2195 
L 460.12608 115.2195 
Q 461.88608 115.2195 461.88608 113.4595 
L 461.88608 42.96435 
Q 461.88608 41.20435 460.12608 41.20435 
L 348.161205 41.20435 
Q 346.401205 41.20435 346.401205 42.96435 
L 346.401205 113.4595 
Q 346.401205 115.2195 348.161205 115.2195 
z
" style="fill:#ffffff;opacity:0.8;stroke:#cccccc;stroke-linejoin:miter;stroke-width:0.8;"/>
    </g>
    <g id="LineCollection_9">
     <path d="M 358.721205 52.730975 
L 358.721205 43.930975 
" style="fill:none;stroke:#1f77b4;stroke-width:1.2;"/>
    </g>
    <g id="line2d_25">
     <path d="M 349.921205 48.330975 
L 367.521205 48.330975 
" style="fill:none;stroke:#1f77b4;stroke-linecap:square;stroke-width:1.2;"/>
    </g>
    <g id="line2d_26"/>
    <g id="text_16">
     <text style="font-family:DejaVu Sans;font-size:8.8px;font-style:normal;font-weight:normal;text-anchor:start;" transform="rotate(-0, 374.561205, 51.410975)" x="374.561205" y="51.410975">Current Item (ID)</text>
    </g>
    <g id="LineCollection_10">
     <path d="M 358.721205 71.489825 
L 358.721205 62.689825 
" style="fill:none;stroke:#aec7e8;stroke-width:1.2;"/>
    </g>
    <g id="line2d_27">
     <path d="M 349.921205 67.089825 
L 367.521205 67.089825 
" style="fill:none;stroke:#aec7e8;stroke-linecap:square;stroke-width:1.2;"/>
    </g>
    <g id="line2d_28"/>
    <g id="text_17">
     <text style="font-family:DejaVu Sans;font-size:8.8px;font-style:normal;font-weight:normal;" transform="translate(374.561205 64.327725)">Sum of Time </text>
     <text style="font-family:DejaVu Sans;font-size:8.8px;font-style:normal;font-weight:normal;" transform="translate(374.561205 74.1818)">on Item (Sum)</text>
    </g>
    <g id="LineCollection_11">
     <path d="M 358.721205 94.26065 
L 358.721205 85.46065 
" style="fill:none;stroke:#ff7f0e;stroke-width:1.2;"/>
    </g>
    <g id="line2d_29">
     <path d="M 349.921205 89.86065 
L 367.521205 89.86065 
" style="fill:none;stroke:#ff7f0e;stroke-linecap:square;stroke-width:1.2;"/>
    </g>
    <g id="line2d_30"/>
    <g id="text_18">
     <text style="font-family:DejaVu Sans;font-size:8.8px;font-style:normal;font-weight:normal;" transform="translate(374.561205 87.09855)">Proportion of Time </text>
     <text style="font-family:DejaVu Sans;font-size:8.8px;font-style:normal;font-weight:normal;" transform="translate(374.561205 96.952625)">on Item (Prop)</text>
    </g>
    <g id="LineCollection_12">
     <path d="M 358.721205 111.189375 
L 358.721205 102.389375 
" style="fill:none;stroke:#ffbb78;stroke-width:1.2;"/>
    </g>
    <g id="line2d_31">
     <path d="M 349.921205 106.789375 
L 367.521205 106.789375 
" style="fill:none;stroke:#ffbb78;stroke-linecap:square;stroke-width:1.2;"/>
    </g>
    <g id="line2d_32"/>
    <g id="text_19">
     <text style="font-family:DejaVu Sans;font-size:8.8px;font-style:normal;font-weight:normal;text-anchor:start;" transform="rotate(-0, 374.561205, 109.869375)" x="374.561205" y="109.869375">ID + Sum + Prop</text>
    </g>
   </g>
  </g>
 </g>
 <defs>
  <clipPath id="p326add24f0">
   <rect height="135.9" width="101.454545" x="118.128477" y="13.2945"/>
  </clipPath>
  <clipPath id="pa8654dad59">
   <rect height="135.9" width="101.454545" x="239.873932" y="13.2945"/>
  </clipPath>
 </defs>
</svg>
